<svg version="1.1" xmlns="http://www.w3.org/2000/svg" viewBox="0 0 970.7012488780244 527.8854946494561" width="1941.402497756049" height="1055.7709892989121">
  <!-- svg-source:excalidraw -->
  
  <defs>
    <style>
      @font-face {
        font-family: "Virgil";
        src: url("https://excalidraw.com/Virgil.woff2");
      }
      @font-face {
        font-family: "Cascadia";
        src: url("https://excalidraw.com/Cascadia.woff2");
      }
    </style>
  </defs>
  <rect x="0" y="0" width="970.7012488780244" height="527.8854946494561" fill="#ffffff"/><g transform="translate(68.20124887802444 191.88549464945606) rotate(0 95 21)"><path d="M0.38304170966148376 1.8063670694828033 C68.17182858288288 -0.6623825952410698, 137.34766989946365 -0.7917208597064018, 190.00627073645592 -1.3052805364131927 M-0.3851126879453659 0.22544018924236298 C64.85402950644493 1.9093490555882453, 129.31785736978054 1.0165062859654426, 189.64321573078632 -0.3334592133760452 M188.65303739905357 0.768289715051651 C188.0743259009719 11.55005749166012, 191.77176414102317 21.470649731159213, 189.70335993170738 42.88726344704628 M189.70063073933125 -0.8535817414522171 C191.03879624456167 14.1088869035244, 190.932379065454 30.142324176430705, 189.26956279575825 41.06571404635906 M188.28982385993004 42.087542682886124 C152.20094142854214 44.233003525435926, 110.79403531551361 42.854092507064344, -1.475924164056778 41.66467681527138 M190.75361354649067 41.67950265109539 C116.93424636125565 42.053098724782465, 46.020228907465935 41.95935873836279, -0.2262062281370163 42.79916159808636 M-1.4732004702091217 41.14010253548622 C0.16093371540308 29.609866932034492, 1.2436868968605994 13.204783916473389, 0.2955668866634369 -0.6908138692378998 M0.3836990147829056 41.535142585635185 C0.5333440449833871 24.998175573349, -1.057234511077404 9.960888126492499, 0.7188969403505325 -0.12579233944416046" stroke="#000000" stroke-width="1" fill="none"/></g><g transform="translate(134.20124887802444 199.88549464945606) rotate(0 29 13)"><text x="29" y="18" font-family="Virgil, Segoe UI Emoji" font-size="20px" fill="#000000" text-anchor="middle" style="white-space: pre;" direction="ltr">closed</text></g><g transform="translate(525.2012488780244 341.88549464945606) rotate(0 133 20)"><path d="M-0.675569545946753 -0.6540963957152723 C76.92326002623554 -2.6541353976834188, 154.9674816598802 -2.9289924740158924, 266.6345212187379 0.44301529833418124 M0.17645841185439226 0.4192122233702361 C60.54318897259239 -0.7598216388298588, 120.71518857925933 -0.7371403193129139, 265.6763600458603 -0.07243107647736668 M264.11283525824547 0.670750766992569 C267.54088097810745 12.043608158826828, 265.4339674115181 25.550407201051712, 267.0938523709774 41.34779945015907 M266.75575836002827 -0.7882030755281448 C266.5295934766531 11.60266147553921, 265.1498150914907 21.57474856078625, 265.0827317982912 40.5466353148222 M267.4004863258726 40.813480993976654 C169.30560323863062 39.81616632064946, 71.54348045581983 39.82708339839413, 1.2754382857476592 39.95366412525755 M265.42527742822136 39.56463127282969 C178.29123436712743 38.81711648452012, 89.30307056172812 39.957846390475055, 0.26029450232737655 39.48945064479606 M-0.11050954461097717 41.59377208352089 C1.2668837308883667 24.102157443761826, 0.5902069807052612 9.168312579393387, 1.7237180173397064 1.5924150049686432 M0.8677511960268021 39.21798340976238 C-0.8763069659471512 29.471094116568565, 0.5654173344373703 18.015388295054432, -0.12201730906963348 0.1024738997220993" stroke="#000000" stroke-width="1" fill="none"/></g><g transform="translate(548.2012488780244 347.88549464945606) rotate(0 110 13)"><text x="110" y="18" font-family="Virgil, Segoe UI Emoji" font-size="20px" fill="#000000" text-anchor="middle" style="white-space: pre;" direction="ltr">displaying second panel</text></g><g transform="translate(537.5786998584174 120.62078876710308) rotate(0 133.62254901960773 20.632352941176464)"><path d="M-0.5565380313209631 -0.7542823177264572 C104.31560729043647 -0.1566931876796266, 209.25418753994157 1.3135755714432114, 266.1016813279971 -0.6068527717343238 M0.044553748541284154 -0.2853508695559494 C85.9172012476714 -1.380110033538702, 172.0738262039726 -1.1896216887766236, 267.310408570031 -0.5306290946734367 M269.05537153751214 -0.28796371817588806 C266.55909148082253 14.851837667954321, 267.94958392009255 29.276947891975155, 266.8723566678222 40.66596736101543 M267.894439220136 0.34814421832561493 C266.8265222994206 7.922845860307708, 266.6396913019536 18.26089894271949, 267.8783798214849 40.40961781231796 M267.1961256811142 40.989619744405694 C184.73893528530814 42.08464652334641, 105.83059149135356 42.30263011889575, 0.5011167482757364 42.45223484158909 M267.79400376451906 40.75662413311911 C195.45847757456974 40.73391228112633, 124.28791898029105 39.595052869686874, 0.6047915084608269 40.68434601844115 M0.9722436368465424 40.437300101799124 C0.31836760594126057 29.968651046516264, 1.74651873661753 21.64663895412403, -0.535295158624649 0.7673980295658112 M-0.722827360033989 41.66520968167221 C0.3608219615194727 30.677722226302414, -0.4800922879006933 20.444797148862303, 0.517613485455513 -0.27944357693195343" stroke="#000000" stroke-width="1" fill="none"/></g><g transform="translate(561.2012488780244 127.05216131612218) rotate(0 107.5 13.70098039215685)"><text x="107.49999999999994" y="19.401960784313697" font-family="Virgil, Segoe UI Emoji" font-size="21.078431372549016px" fill="#000000" text-anchor="middle" style="white-space: pre;" direction="ltr">displaying first panel</text></g><g><g transform="translate(136.77898363153224 182.88549464945606) rotate(0 197.88444071560184 -16.913586855188782)"><path d="M-0.7348827302455903 0.8757283151149748 C65.16546606073472 -4.5049622138303524, 330.51184432554703 -27.14846121468246, 396.5037641614492 -32.703242319799664 M1.0801651070360094 0.2898817352112384 C66.82072751540075 -5.43928402973272, 330.5797026821663 -28.897728846684476, 396.1235056281745 -34.70290202549257" stroke="#000000" stroke-width="1" fill="none"/></g><g transform="translate(136.77898363153224 182.88549464945606) rotate(0 197.88444071560184 -16.913586855188782)"><path d="M370.40972687746637 -20.187797601537138 C380.03145567924184 -27.147475440690037, 391.09526650709927 -32.36307140280461, 394.7045900285899 -35.17780957272806 M369.5340197428619 -21.44689209313813 C377.4663036247268 -26.00749488438359, 385.0590948396334 -30.115988863788907, 395.17125817245835 -34.63983689895429" stroke="#000000" stroke-width="1" fill="none"/></g><g transform="translate(136.77898363153224 182.88549464945606) rotate(0 197.88444071560184 -16.913586855188782)"><path d="M368.5955717076839 -40.628659701893646 C378.8567077361204 -39.56837619294429, 390.63131535607533 -36.775120734492106, 394.7045900285899 -35.17780957272806 M367.71986457307946 -41.88775419349464 C376.0433605293697 -40.57919337907294, 384.15661357762883 -38.82342131262883, 395.17125817245835 -34.63983689895429" stroke="#000000" stroke-width="1" fill="none"/></g></g><g transform="translate(244.20124887802444 135.38549464945606) rotate(353.91147184580484 88 13)"><text x="0" y="18" font-family="Virgil, Segoe UI Emoji" font-size="20px" fill="#000000" text-anchor="start" style="white-space: pre;" direction="ltr">toggle first panel</text></g><g><g transform="translate(99.24226268527286 244.88549464945606) rotate(0 209.8639460299797 66.76576197084611)"><path d="M1.039255231618881 1.0892854750156402 C70.75820091065577 23.103632356006383, 347.82110806985753 111.04501054921985, 417.25815067272254 132.91596753763247 M0.12572549887932838 0.615556404059753 C70.32768507873266 22.183909595453844, 350.16651447825126 108.83775012419424, 419.60216656108 130.98691444420467" stroke="#000000" stroke-width="1" fill="none"/></g><g transform="translate(99.24226268527286 244.88549464945606) rotate(0 209.8639460299797 66.76576197084611)"><path d="M391.4483075033737 131.1749410395964 C396.59249713154315 131.30011571848254, 401.94561951105317 132.37737403134577, 419.5896995045672 129.18962951326023 M388.96460745147 132.48973559490284 C396.5761701838578 131.85071589971744, 405.5057477903642 131.4635883870431, 419.6097316571007 130.16166445934425" stroke="#000000" stroke-width="1" fill="none"/></g><g transform="translate(99.24226268527286 244.88549464945606) rotate(0 209.8639460299797 66.76576197084611)"><path d="M397.5881247804378 111.59376012040505 C401.5658472338658 115.92409649450268, 405.6170844983289 121.15334285902428, 419.5896995045672 129.18962951326023 M395.10442472853407 112.90855467571149 C401.09541624519153 117.4274590274628, 408.41049869668586 122.189299358106, 419.6097316571007 130.16166445934425" stroke="#000000" stroke-width="1" fill="none"/></g></g><g transform="translate(132.20124887802444 325.38549464945606) rotate(0 96.5 13)"><text x="0" y="18" font-family="Virgil, Segoe UI Emoji" font-size="20px" fill="#000000" text-anchor="start" style="white-space: pre;" direction="ltr">toggle second panel</text></g><g><g transform="translate(772.8976389692159 328.88549464945606) rotate(0 -13.228280171272331 -79.26624745726585)"><path d="M0.7893345773220062 -0.4306180894374847 C-3.661774083279693 -26.794150664409, -21.77654522013229 -131.70120435754458, -26.315806956905863 -158.10187682509422 M-0.25540349892340597 -1.7022965317312628 C-4.8957394696461645 -27.877315960361937, -22.744720202119392 -130.57575985703306, -27.245894919866686 -156.6179369070474" stroke="#000000" stroke-width="1" fill="none"/></g><g transform="translate(772.8976389692159 328.88549464945606) rotate(0 -13.228280171272331 -79.26624745726585)"><path d="M-13.03613860352677 -130.5384167340166 C-17.469866394887056 -139.311926338184, -23.65558916053314 -149.02234016619826, -27.450714271301393 -155.45285001181998 M-13.254503572422681 -131.23383030859299 C-17.261844300377817 -137.63239162384116, -22.162128717550658 -145.86807019204807, -27.62189000451005 -156.27666772686877" stroke="#000000" stroke-width="1" fill="none"/></g><g transform="translate(772.8976389692159 328.88549464945606) rotate(0 -13.228280171272331 -79.26624745726585)"><path d="M-33.255447651048776 -127.03134615779007 C-30.96714952992411 -137.10420201807165, -30.428528249627288 -147.98096377086034, -27.450714271301393 -155.45285001181998 M-33.47381261994469 -127.72675973236645 C-31.514143989377516 -135.2440897627023, -30.44010832826888 -144.5160234329137, -27.62189000451005 -156.27666772686877" stroke="#000000" stroke-width="1" fill="none"/></g></g><g transform="translate(781.7012488780244 235.88549464945606) rotate(0 89.5 13)"><text x="0" y="18" font-family="Virgil, Segoe UI Emoji" font-size="20px" fill="#000000" text-anchor="start" style="white-space: pre;" direction="ltr">Toggle first panel</text></g><g><g transform="translate(594.3782449815842 177.88549464945606) rotate(0 8.951648496509904 76.11887113503181)"><path d="M0.45136433243751517 0.607691091299057 C3.7245920939012187 25.901243807872135, 15.988017246506523 126.16190162698426, 18.674105115392102 151.22569970488547 M-0.7708081223722547 -0.11887503110803666 C2.521317185919243 25.3581606098668, 15.000478736327377 127.04047676937343, 18.280810402574808 152.35661730117164" stroke="#000000" stroke-width="1" fill="none"/></g><g transform="translate(594.3782449815842 177.88549464945606) rotate(0 8.951648496509904 76.11887113503181)"><path d="M5.596174588333632 127.42728783008266 C6.181157812403507 129.7256056037037, 8.796558471600772 135.73300681915163, 18.39389534467724 151.07985752767883 M5.437748318444754 126.03281402405906 C9.949729336520747 134.78729983320727, 15.164935401595466 146.00895190908557, 17.93128368431595 152.3524002278503" stroke="#000000" stroke-width="1" fill="none"/></g><g transform="translate(594.3782449815842 177.88549464945606) rotate(0 8.951648496509904 76.11887113503181)"><path d="M25.957056172293946 124.86711136940944 C22.06014549203453 127.8041302413186, 20.205079521880172 134.37364775735475, 18.39389534467724 151.07985752767883 M25.798629902405068 123.47263756338585 C22.659747565655056 133.2065762637998, 20.210126504076065 145.39200340530428, 17.93128368431595 152.3524002278503" stroke="#000000" stroke-width="1" fill="none"/></g></g><g transform="translate(389.70124887802444 242.88549464945606) rotate(0 98 13)"><text x="0" y="18" font-family="Virgil, Segoe UI Emoji" font-size="20px" fill="#000000" text-anchor="start" style="white-space: pre;" direction="ltr">Toggle second panel</text></g><g><g transform="translate(560.2012488780244 395.88549464945606) rotate(0 -258.8658898396238 -45.65082686950285)"><path d="M0.6694887220859527 0.8901038110256196 C-0.9613290091355642 11.020733350515366, 77.64922797481219 56.05023882587751, -8.998937982320786 61.064655393362045 C-95.64710393945376 66.07907196084659, -438.5549694001675 66.57208451628685, -519.219507020712 30.976603215932847 C-599.8840446412564 -4.618878084421155, -497.1416476507982 -121.67375167806944, -492.9861637055874 -152.50823240876198 M-0.4381684281583875 0.31180436647497123 C-1.7731867570833615 10.105382162397728, 79.71145379263598 54.17269099768561, -6.811425886666402 59.5010247260984 C-93.33430556596878 64.8293584545112, -438.67618405095305 67.99967644697986, -519.5754465039727 32.281806736951694 C-600.4747089569923 -3.4360629730764742, -496.7615611682491 -123.72915255112883, -492.2070006047841 -154.80619353407062" stroke="#000000" stroke-width="1" fill="none"/></g><g transform="translate(560.2012488780244 395.88549464945606) rotate(0 -258.8658898396238 -45.65082686950285)"><path d="M-493.91450537449424 -126.64128212591272 C-492.52710108647096 -134.5960830407473, -493.1742152189716 -145.10989381674045, -491.38738795272076 -155.28386578314937 M-495.738314029637 -125.70887452324492 C-494.7171578236524 -130.35413557735507, -493.1900948800566 -137.07548567882998, -491.64648551396095 -154.1822444086615" stroke="#000000" stroke-width="1" fill="none"/></g><g transform="translate(560.2012488780244 395.88549464945606) rotate(0 -258.8658898396238 -45.65082686950285)"><path d="M-512.3421816014537 -135.67127389003912 C-504.19837410900624 -140.42844593536338, -498.11022109907634 -147.64181849677792, -491.38738795272076 -155.28386578314937 M-514.1659902565965 -134.7388662873713 C-509.191317751135 -137.3066456032891, -503.7180925886794 -142.094284047508, -491.64648551396095 -154.1822444086615" stroke="#000000" stroke-width="1" fill="none"/></g></g><g transform="translate(233.20124887802444 464.88549464945606) rotate(0 96.5 13)"><text x="0" y="18" font-family="Virgil, Segoe UI Emoji" font-size="20px" fill="#000000" text-anchor="start" style="white-space: pre;" direction="ltr">toggle second panel</text></g><g><g transform="translate(599.2012488780244 107.88549464945606) rotate(0 -259.87338797361934 3.4870157427935027)"><path d="M0.6449324548244475 1.1345268309116363 C-1.1609695812066398 -9.962654425700508, 72.68109286030133 -60.93320706089338, -11.855345064401627 -66.16160373091698 C-96.3917829891046 -71.39000040094058, -421.13803638418517 -53.42096766829491, -506.5736950933933 -30.235853189229964 C-592.0093538026015 -7.050738710165017, -521.3636495967706 55.77031428615253, -524.4692973196507 72.94908314347268 M-0.47561673573218277 0.6845494718011467 C-1.815138629491751 -10.346784196331477, 74.93504774300693 -59.75706397963999, -9.592446686839684 -65.23402043842711 C-94.11994111668629 -70.71097689721424, -421.91536120157997 -55.38722813450731, -507.6405833148118 -32.177189280921596 C-593.3658054280436 -8.967150427335877, -520.7526141358571 56.473048044309635, -523.9437793662306 74.02621268308721" stroke="#000000" stroke-width="1" fill="none"/></g><g transform="translate(599.2012488780244 107.88549464945606) rotate(0 -259.87338797361934 3.4870157427935027)"><path d="M-542.5918236922195 50.733935319336446 C-541.9259208740617 55.79443014158351, -534.300353391311 62.33655644862433, -524.0286407937762 73.68024363196454 M-543.4870051245858 51.43101356223443 C-537.9746522007 58.711696969411065, -532.9992971433107 64.85690219097803, -524.4994204660412 74.67468372560106" stroke="#000000" stroke-width="1" fill="none"/></g><g transform="translate(599.2012488780244 107.88549464945606) rotate(0 -259.87338797361934 3.4870157427935027)"><path d="M-523.7309833945253 42.64760700231156 C-527.0918646481468 49.54807406394432, -523.5214833743245 57.8288062100938, -524.0286407937762 73.68024363196454 M-524.6261648268917 43.34468524520955 C-524.5532451267139 53.01623509778005, -524.9795717899027 61.47733776438322, -524.4994204660412 74.67468372560106" stroke="#000000" stroke-width="1" fill="none"/></g></g><g transform="translate(242.20124887802444 16.885494649456064) rotate(355.4860115419987 88 13)"><text x="0" y="18" font-family="Virgil, Segoe UI Emoji" font-size="20px" fill="#000000" text-anchor="start" style="white-space: pre;" direction="ltr">toggle first panel</text></g><g transform="translate(792.7012488780244 506.88549464945606) rotate(0 84 10.5)"><text x="168" y="15" font-family="Virgil, Segoe UI Emoji" font-size="16px" fill="#adb5bd" text-anchor="end" style="white-space: pre;" direction="ltr">Made with Excalidraw</text></g></svg>