<?xml version="1.0" encoding="utf-8"?>
<!-- Generated by IcoMoon.io -->
<!DOCTYPE svg PUBLIC "-//W3C//DTD SVG 1.1//EN" "http://www.w3.org/Graphics/SVG/1.1/DTD/svg11.dtd">
<svg version="1.1" xmlns="http://www.w3.org/2000/svg" xmlns:xlink="http://www.w3.org/1999/xlink" width="60" height="60" viewBox="0 0 60 60">
<g>
</g>
	<path d="M46.875 24.375c-4.136 0-7.5 3.364-7.5 7.5s3.364 7.5 7.5 7.5c4.136 0 7.5-3.364 7.5-7.5 0-4.136-3.364-7.5-7.5-7.5zM46.875 18.75v0c7.249 0 13.125 5.876 13.125 13.125 0 7.249-5.876 13.125-13.125 13.125-7.249 0-13.125-5.876-13.125-13.125 0-7.249 5.876-13.125 13.125-13.125zM0 31.875c0-7.249 5.876-13.125 13.125-13.125s13.125 5.876 13.125 13.125c0 7.249-5.876 13.125-13.125 13.125-7.249 0-13.125-5.876-13.125-13.125z" fill="#000000" />
</svg>
