<svg role="img" xmlns="http://www.w3.org/2000/svg" width="40" height="40" viewBox="30 0 140 100" class="icon icon-github" version="1.1">
  <title>Icon - GitHub</title>
  <g id="icon-github" stroke="none" stroke-width="1" fill="none" fill-rule="evenodd">
    <g transform="translate(0.000000, -5.000000)">
      <path d="M120.32 17.88C113.54 16.05 106.19 15.04 98.52 15.04 90.63 15.04 83.18 16.1 76.36 18.04L76.36 18.04C75.41 17.13 72.59 14.59 67.89 11.42 61.98 7.44 56.08 5.88 56.08 5.88 56.08 5.88 52.91 9.87 51.93 17.39 51.16 23.26 52.49 28.08 53.11 29.91 43.63 37.73 37.79 48.03 37.21 59.31 35.54 91.72 64.4 103.58 98.52 103.58 132.64 103.58 160.3 92.99 160.3 59.31 160.3 47.63 153.98 37 143.67 29.09 144.32 26.86 145.26 22.53 144.58 17.39 143.6 9.87 140.44 5.88 140.44 5.88 140.44 5.88 134.53 7.44 128.62 11.42 124.17 14.42 121.41 16.86 120.32 17.88ZM71.03 44.39C59.86 44.39 50.8 53.44 50.8 64.62L50.8 70.27C50.8 85.25 62.9 98.49 77.85 99.61 77.85 99.61 81.73 100.46 98.77 100.46 115.8 100.46 119.7 99.61 119.7 99.61 134.63 98.39 146.73 85.25 146.73 70.27L146.73 64.62C146.73 53.45 137.69 44.39 126.51 44.39L71.03 44.39Z" id="Head" fill="#515151" /><path d="M98.5 90.87C99.28 90.41 100.56 90.22 102.23 90.57 102.07 90.62 101.89 90.64 101.89 90.64 101.89 90.64 102.24 90.61 102.39 90.6 102.74 90.68 103.1 90.79 103.48 90.92 103.31 90.99 103.09 91 103.09 91 103.09 91 103.47 90.97 103.64 90.97 103.73 91 103.82 91.04 103.91 91.07 104.07 91.13 104.23 91.18 104.39 91.22 104.25 91.28 104.1 91.3 104.1 91.3 104.1 91.3 104.34 91.31 104.55 91.26 104.85 91.33 105.16 91.37 105.46 91.39 105.31 91.45 105.12 91.5 105.12 91.5L105.71 91.39C106.14 91.39 106.57 91.34 106.95 91.24 106.84 91.34 106.73 91.39 106.73 91.39 106.73 91.39 107.04 91.29 107.23 91.16 107.66 91 108.01 90.78 108.23 90.49 108.21 90.61 108.16 90.71 108.16 90.71 108.16 90.71 108.37 90.3 108.39 90.2 108.39 90.19 108.39 90.19 108.4 90.18 108.46 90 108.47 89.81 108.44 89.6 108.34 88.98 106.31 88.39 107.77 88.13 107.92 88.1 108.07 88.09 108.2 88.09 108.39 88.15 108.65 88.21 108.65 88.21 108.65 88.21 108.52 88.18 108.4 88.09 109.49 88.2 110.13 89.17 109.9 90.54 109.87 90.73 109.83 90.93 109.76 91.13 109.74 91.16 109.72 91.18 109.7 91.21 109.65 91.3 109.4 91.67 109.4 91.67 109.4 91.67 109.52 91.49 109.67 91.37 109.51 91.8 109.26 92.24 108.9 92.64 108.9 92.64 108.89 92.66 108.88 92.67 108.87 92.69 108.86 92.7 108.85 92.71 108.83 92.73 108.82 92.74 108.8 92.75 108.72 92.81 108.33 93.03 108.33 93.03 108.33 93.03 108.5 92.93 108.68 92.89 108.16 93.41 107.45 93.88 106.51 94.18 106.47 94.19 106.35 94.19 106.21 94.22 106.03 94.25 105.67 94.28 105.67 94.28 105.67 94.28 105.9 94.25 106.09 94.3 105.46 94.46 104.74 94.55 103.9 94.55 103.85 94.54 103.79 94.53 103.71 94.52 103.53 94.49 103.18 94.41 103.18 94.41 103.18 94.41 103.39 94.45 103.55 94.55 102.6 94.54 101.76 94.47 101.05 94.35 101 94.33 100.91 94.3 100.79 94.27 100.62 94.22 100.28 94.08 100.28 94.08 100.28 94.08 100.49 94.16 100.64 94.28 99.71 94.1 99 93.83 98.5 93.51 98.01 93.83 97.3 94.1 96.37 94.28 96.51 94.16 96.73 94.08 96.73 94.08 96.73 94.08 96.39 94.22 96.21 94.27 96.1 94.3 96.01 94.33 95.96 94.35 95.24 94.47 94.41 94.54 93.45 94.55 93.62 94.45 93.83 94.41 93.83 94.41 93.83 94.41 93.47 94.49 93.29 94.52 93.22 94.53 93.16 94.54 93.11 94.55 92.27 94.55 91.55 94.46 90.92 94.3 91.11 94.25 91.34 94.28 91.34 94.28 91.34 94.28 90.98 94.25 90.8 94.22 90.66 94.19 90.54 94.19 90.5 94.18 89.55 93.88 88.84 93.41 88.32 92.89 88.5 92.93 88.68 93.03 88.68 93.03 88.68 93.03 88.29 92.81 88.21 92.75 88.19 92.74 88.17 92.73 88.16 92.71 88.15 92.7 88.14 92.69 88.13 92.67 88.11 92.66 88.11 92.64 88.11 92.64 87.75 92.24 87.5 91.8 87.34 91.37 87.48 91.49 87.61 91.67 87.61 91.67 87.61 91.67 87.35 91.3 87.3 91.21 87.29 91.18 87.27 91.16 87.25 91.13 87.18 90.93 87.13 90.73 87.1 90.54 86.88 89.17 87.51 88.2 88.61 88.09 88.49 88.18 88.35 88.21 88.35 88.21 88.35 88.21 88.62 88.15 88.81 88.09 88.94 88.09 89.09 88.1 89.23 88.13 90.7 88.39 88.67 88.98 88.57 89.6 88.53 89.81 88.55 90 88.61 90.18 88.61 90.19 88.62 90.19 88.62 90.2 88.64 90.3 88.85 90.71 88.85 90.71 88.85 90.71 88.8 90.61 88.78 90.49 88.99 90.78 89.35 91 89.78 91.16 89.97 91.29 90.28 91.39 90.28 91.39 90.28 91.39 90.16 91.34 90.06 91.24 90.44 91.34 90.87 91.39 91.3 91.39L91.89 91.5C91.89 91.5 91.7 91.45 91.55 91.39 91.85 91.37 92.16 91.33 92.46 91.26 92.66 91.31 92.9 91.3 92.9 91.3 92.9 91.3 92.76 91.28 92.61 91.22 92.78 91.18 92.94 91.13 93.1 91.07 93.19 91.04 93.28 91 93.37 90.97 93.53 90.97 93.92 91 93.92 91 93.92 91 93.7 90.99 93.52 90.92 93.9 90.79 94.27 90.68 94.62 90.6 94.77 90.61 95.11 90.64 95.11 90.64 95.11 90.64 94.94 90.62 94.78 90.57 96.45 90.22 97.73 90.41 98.5 90.87Z" id="Oval-57-copy" fill="#515151" /><path d="M0.12 66.46C0.12 66.46 10.91 64.57 23.4 63.85 35.88 63.14 44.67 63.85 44.67 63.85" id="Whisker" stroke="#515151" stroke-width="0.74" stroke-linecap="square" /><path d="M2.59 72.87C2.59 72.87 13.37 70.98 25.86 70.27 38.35 69.56 47.13 70.27 47.13 70.27" id="Whisker-copy" stroke="#515151" stroke-width="0.74" stroke-linecap="square" transform="translate(24.784217, 71.516646) rotate(-5.000000) translate(-24.784217, -71.516646) "/><path d="M153.02 66.46C153.02 66.46 163.81 64.57 176.29 63.85 188.78 63.14 197.57 63.85 197.57 63.85" id="Whisker-copy" stroke="#515151" stroke-width="0.74" stroke-linecap="square" transform="translate(175.215783, 65.104809) scale(-1, 1) translate(-175.215783, -65.104809) "/><path d="M155.49 72.87C155.49 72.87 166.27 70.98 178.76 70.27 191.25 69.56 200.03 70.27 200.03 70.27" id="Whisker-copy-2" stroke="#515151" stroke-width="0.74" stroke-linecap="square" transform="translate(177.681874, 71.516646) scale(-1, 1) rotate(-5.000000) translate(-177.681874, -71.516646) "/><circle id="Nose" fill="#515151" cx="98.64" cy="83.85" r="2.47"/><ellipse id="Eye---Left" fill="#515151" cx="73.98" cy="67.32" rx="9.86" ry="14.06"/><ellipse id="Eye---Right" fill="#515151" cx="123.3" cy="67.32" rx="9.86" ry="14.06"/>
    </g>
  </g>
</svg>
