<svg xmlns="http://www.w3.org/2000/svg" xmlns:sketch="http://www.bohemiancoding.com/sketch/ns" width="606" height="404" viewBox="0" version="1.1"><title>Icon-Projects</title><description>Created with Sketch (http://www.bohemiancoding.com/sketch)</description>
  <g id="icon-projects" stroke="none" stroke-width="1" fill="none" fill-rule="evenodd" sketch:type="MSPage">
    <g sketch:type="MSLayerGroup" transform="translate(3.000000, 3.000000)">
      <path d="M16.01 0C7.17 0 0 7.16 0 16L0 382C0 390.84 7.16 398 16.01 398L583.99 398C592.83 398 600 390.84 600 382L600 16C600 7.16 592.84 0 583.99 0L16.01 0ZM14 66L14 367.99C14 377.94 22.06 386 32 386L568 386C577.94 386 586 377.95 586 367.99L586 66 14 66Z" id="Rectangle-8" stroke="#2C3032" stroke-width="3" fill="#A5ABAC" sketch:type="MSShapeGroup"/><path d="M235.8 196.68L246.32 207.2 264.7 188.82 254.73 178.84C259.76 165.27 257.09 147.52 243.63 140.37 228.99 132.6 208.86 142.6 203.61 126.92 198.37 111.23 210.02 106.77 210.02 106.77 210.02 106.77 178.39 110.21 176.58 138.55 174.76 166.88 191.71 180.17 198.62 187.08 207.66 196.12 223.22 200.12 235.8 196.68ZM255.96 217.05C255.96 217.05 379.62 350.27 393.95 335.95 408.27 321.62 275.05 197.96 275.05 197.96L255.96 217.05Z" id="Rectangle-6" fill="#2C3032" sketch:type="MSShapeGroup"/><path d="M396.16 197.84L391.19 202.81 340.1 151.71 339.77 152.04C339.77 152.04 320.72 131.23 306.23 121.87 291.74 112.5 285.23 111.61 285.23 111.61 285.23 111.61 297.14 102.06 329.04 100.86 357.93 99.78 373.45 112.48 376.12 114.88L376.46 114.54 427.96 166.04 423.51 170.49C425.48 170.07 426.75 169.86 426.75 169.86 429.46 169.3 433.24 170.47 435.2 172.43L453.57 190.8C455.53 192.76 455.92 196.24 454.45 198.57 454.45 198.57 452.41 203.14 440.77 214.77 429.14 226.41 424.57 228.45 424.57 228.45 422.27 229.96 418.76 229.53 416.8 227.57L398.43 209.2C396.47 207.24 395.25 203.45 395.71 200.72 395.71 200.72 395.84 199.6 396.16 197.84ZM352.48 168.48L198.16 314.43C196.16 316.33 195.86 319.66 197.52 321.87 197.52 321.87 203.45 330.11 208.66 335.32 213.98 340.64 222.12 346.48 222.12 346.48 224.33 348.13 227.69 347.86 229.62 345.88L378 194 352.48 168.48Z" id="Hammer" fill="#2C3032" sketch:type="MSShapeGroup"/><circle id="Button---Start" fill="#2C3032" sketch:type="MSShapeGroup" cx="29" cy="35" r="15"/><circle id="Button---Mid" fill="#4A4E51" sketch:type="MSShapeGroup" cx="69" cy="35" r="15"/><circle id="Button---End" fill="#4A4E51" sketch:type="MSShapeGroup" cx="109" cy="35" r="15"/>
    </g>
  </g>
</svg>
