<svg xmlns="http://www.w3.org/2000/svg" xmlns:sketch="http://www.bohemiancoding.com/sketch/ns" width="342" height="382" viewBox="0" version="1.1"><title>Icon-Bio</title><description>Created with Sketch (http://www.bohemiancoding.com/sketch)</description>
<g id="icon-bio" stroke="none" stroke-width="1" fill="none" fill-rule="evenodd" sketch:type="MSPage">
  <g sketch:type="MSLayerGroup" transform="translate(3.000000, -7.000000)">
    <path d="M110.48 49.71C100.72 63.07 93.36 79.7 89.37 98.29L89.37 98.29C87.56 97.82 85.77 97.78 84.05 98.24 74.18 100.89 70.41 118.82 75.63 138.29 78.6 149.38 83.85 158.58 89.64 163.96 97.26 198 116.2 225.3 140.48 237.73 130.58 253.09 119.14 269 101.39 269L78 269C34.92 269 0 303.93 0 347L0 378C0 382.42 3.57 386 7.99 386L328.01 386C332.42 386 336 382.42 336 378L336 347C336 303.92 301.07 269 258 269L235.98 269C218.59 269 208.21 253.4 198.62 238.18L198.62 238.18C223.33 225.98 242.64 198.42 250.36 163.96 256.15 158.58 261.4 149.38 264.37 138.29 269.59 118.82 265.82 100.89 255.95 98.24 254.23 97.78 252.44 97.82 250.63 98.29L250.63 98.29C245.57 74.7 235.08 54.26 221.14 39.65 228.83 34.05 232.91 28.04 231.85 22.57 230.41 15.14 209.84 22.94 198.97 20.44 188.1 17.94 180.13 8.69 166.02 11.43 132.13 18.02 110 33.42 109.15 46.43 109.37 47.58 109.82 48.68 110.48 49.71Z" id="Chest" stroke="#2C3032" stroke-width="3" sketch:type="MSShapeGroup"/><path d="M220 261L169 339 118 261" id="Path" stroke="#2C3032" stroke-width="3" sketch:type="MSShapeGroup"/><path d="M158.06 274.45C160.09 277.85 163.8 280.12 168.03 280.12 172.58 280.12 176.51 277.5 178.42 273.69L178.42 273.69 196.32 282.66C197.81 283.4 199 282.66 199 281L199 255C199 253.33 197.8 252.6 196.32 253.34L178 262.52C175.98 259.12 172.27 256.85 168.03 256.85 164.11 256.85 160.64 258.8 158.53 261.79L141.68 253.34C140.2 252.6 139 253.33 139 255L139 281C139 282.66 140.19 283.4 141.68 282.66L158.06 274.45Z" id="Bowtie" fill="#2C3032" sketch:type="MSShapeGroup"/><text id="?" sketch:type="MSTextLayer" font-family="Museo Sans Rounded" font-size="144" font-weight="260" sketch:alignment="middle" fill="#000000"><tspan x="143.5" y="190">?</tspan></text>
  </g>
</g>
</svg>
