<svg xmlns="http://www.w3.org/2000/svg" xmlns:sketch="http://www.bohemiancoding.com/sketch/ns" width="286" height="496" viewBox="0 0 285 500" version="1.1">
  <g id="icon-tardis" stroke="none" stroke-width="1" fill="none" fill-rule="evenodd" sketch:type="MSPage">
    <g sketch:type="MSLayerGroup"><rect id="Rectangle-10" fill="#515151" sketch:type="MSShapeGroup" x="8" y="96" width="270" height="400"/>
      <path d="M160.21 46L126.35 46 18 66 18 81 268 81 268 66 160.21 46Z" id="Rectangle-11-copy" fill="#515151" sketch:type="MSShapeGroup"/><rect id="Rectangle-16" stroke="#515151" sketch:type="MSShapeGroup" x="128" y="0" width="30" height="38"/><rect id="Rectangle-13" stroke="#979797" fill="#515151" sketch:type="MSShapeGroup" x="0" y="479" width="286" height="17"/><rect id="Rectangle-14" fill="#515151" sketch:type="MSShapeGroup" x="126" y="37" width="34" height="9"/><rect id="Rectangle-14-copy" fill="#515151" sketch:type="MSShapeGroup" x="126" y="1" width="34" height="5"/><rect id="Rectangle-19" fill="#D8D8D8" sketch:type="MSShapeGroup" x="138" y="141" width="10" height="338"/><path d="M19.99 111C18.89 111 18 111.9 18 112.99L18 139.01C18 140.11 18.91 141 19.99 141L266.01 141C267.11 141 268 140.1 268 139.01L268 112.99C268 111.89 267.09 111 266.01 111L19.99 111ZM25 115L25 137 261 137 261 115 25 115Z" id="Sign" fill="#D8D8D8" sketch:type="MSShapeGroup"/><rect id="Rectangle-11" stroke="#979797" fill="#515151" sketch:type="MSShapeGroup" x="14" y="78" width="258" height="18"/><path d="M35.5 139.5L35.5 478.83" id="Line" stroke="#D8D8D8" stroke-linecap="square" sketch:type="MSShapeGroup"/><path d="M251.5 139.5L251.5 478.83" id="Line-copy" stroke="#D8D8D8" stroke-linecap="square" sketch:type="MSShapeGroup"/><path d="M47 157L47 247 127 247 127 157 47 157ZM53 164L53 199 73 199 73 164 53 164ZM77 164L77 199 97 199 97 164 77 164ZM102 164L102 199 122 199 122 164 102 164ZM53 206L53 241 73 241 73 206 53 206ZM77 206L77 241 97 241 97 206 77 206ZM102 206L102 241 122 241 122 206 102 206Z" id="Rectangle-20" fill="#D8D8D8" sketch:type="MSShapeGroup"/><path d="M159 157L159 247 239 247 239 157 159 157ZM165 164L165 199 185 199 185 164 165 164ZM189 164L189 199 209 199 209 164 189 164ZM214 164L214 199 234 199 234 164 214 164ZM165 206L165 241 185 241 185 206 165 206ZM189 206L189 241 209 241 209 206 189 206ZM214 206L214 241 234 241 234 206 214 206Z" id="Rectangle-20-copy" fill="#D8D8D8" sketch:type="MSShapeGroup"/><rect id="Rectangle-34" fill="#313131" sketch:type="MSShapeGroup" x="48" y="265" width="80" height="90"/><rect id="Rectangle-34-copy" fill="#313131" sketch:type="MSShapeGroup" x="48" y="374" width="80" height="90"/><rect id="Rectangle-34-copy" fill="#313131" sketch:type="MSShapeGroup" x="159" y="265" width="80" height="90"/><rect id="Rectangle-34-copy-2" fill="#313131" sketch:type="MSShapeGroup" x="159" y="374" width="80" height="90"/><text id="POLICE" sketch:type="MSTextLayer" font-family="Helvetica" font-size="13" font-weight="260" sketch:alignment="middle" letter-spacing="0.2" fill="#D8D8D8"><tspan x="63.29" y="131">POLICE</tspan></text><text id="BOX" sketch:type="MSTextLayer" font-family="Helvetica" font-size="13" font-weight="260" sketch:alignment="middle" letter-spacing="0.2" fill="#D8D8D8"><tspan x="185.34" y="131">BOX</tspan></text>
    </g>
  </g>
</svg>
