<svg role="img" xmlns="http://www.w3.org/2000/svg" xmlns:sketch="http://www.bohemiancoding.com/sketch/ns" width="442" height="325" viewBox="0 0 445 270" version="1.1">
  <title>brain with question marks</title>
  <g id="icon-musings" stroke="none" stroke-width="1" fill="none" fill-rule="evenodd" sketch:type="MSPage">
    <g sketch:type="MSLayerGroup" transform="translate(2.000000, -15.000000)">
      <path d="M57.5 182.5C57.5 182.5 45.2 231.62 35.85 245.51 26.49 259.4 9.5 260.5 9.5 260.5M85.5 297.5C85.5 297.5 61.77 284.4 52.67 254.31 43.57 224.22 57.5 183.5 57.5 183.5M116.5 323.5C116.5 323.5 123.75 309.2 118.93 293.46 114.11 277.72 98.5 257.5 98.5 257.5M205.5 277.5C205.5 277.5 200.14 282.05 185.03 285.59 169.92 289.13 155.19 295.57 145.64 300.5 134.48 306.27 116.5 323.5 116.5 323.5M125.5 179.5C125.5 179.5 84.68 202.3 90.45 239.44 96.22 276.57 150.5 285.5 150.5 285.5M66 138C66 138 84.58 146.39 91.79 162.45 99.01 178.5 91.79 219 91.79 219M173.89 190C173.89 190 129.53 222.7 134.37 262.06 139.21 301.42 187 284.29 187 284.29M112.5 129.5C112.5 129.5 96.64 145.05 88.5 146.24 80.64 147.39 64.5 136.5 64.5 136.5M155.5 106.5C155.5 106.5 100.65 122.36 100.18 153.88 99.71 185.4 152.5 179.5 152.5 179.5M132.5 153.5C132.5 153.5 180.45 147.31 185.77 173.45 188.61 187.42 144.55 205.44 136.5 218.72 128.45 232.01 136.5 237.5 136.5 237.5M185 169.99C185 169.99 203 109.31 243.5 112.09 284 114.88 302 178 302 178M163 154C163 154 177.99 150.81 186.5 145.74 193.66 141.47 210 126 210 126M185.34 330.67C185.34 330.67 226.34 306.67 223.29 276.58 220.23 246.49 179.5 251.5 179.5 251.5M288 108C288 108 298.17 125.78 299.52 138.89 300.87 152.01 301 174 301 174M253 285.13C253 285.13 233.52 277.62 223.41 290.81 213.29 303.99 220.47 332 220.47 332M179.5 251.5C179.5 251.5 217.83 230.78 229.66 214.76 239.49 201.45 244.5 163.5 244.5 163.5M337 287.77C337 287.77 337 317 297.63 317 258.27 317 222 225 222 225M242.5 158.5C242.5 158.5 251.49 181.28 266.32 198.99 280.33 215.72 296.81 227.81 317.73 217.65 356.12 199 340.5 123.5 340.5 123.5M267 200C267 200 283.75 216.39 290.87 229 298 241.61 298 258 298 258M296.5 277.5C296.5 277.5 296.28 218.42 332.55 215.78 368.82 213.13 380.5 273.5 380.5 273.5M400.06 200C400.06 200 407.58 227 393.03 235.85 378.48 244.69 355 223.43 355 223.43M337.66 266C337.66 266 337.92 272.31 337.66 278.19 337.26 287.06 336.41 297.41 337.66 303.26 339.35 311.19 349 319 349 319M428.5 266.5C428.5 266.5 403.61 307 376.57 302.03 349.52 297.05 334.5 258.5 334.5 258.5M379.5 216.5C379.5 216.5 356.8 196.44 358.02 171.5 359.24 146.56 372.5 126.5 372.5 126.5M380.5 274.5C380.5 274.5 407.06 256.97 410.04 233.05 413.02 209.13 384.49 186.75 390 167.13 391.69 161.1 399.5 150.5 399.5 150.5M15.68 192.91C15.68 192.91 12.59 175.78 25.03 159.19 32.21 149.61 44.55 140.21 65.65 134.39 65.65 134.39 82.53 120.73 97.05 120.73 97.05 120.73 112.59 96.55 156.7 106.25 156.7 106.25 179.86 83.18 217.26 100.37 217.26 100.37 250.71 78.89 282.29 106.64 282.29 106.64 319.2 100.29 335.5 122.5 335.5 122.5 381.42 114.15 398.62 150.3 398.62 150.3 429.62 168.58 425.92 200.63 425.92 200.63 457.75 236.86 416.54 282.34 416.54 282.34 402.53 333.03 349.06 318.82 349.06 318.82 321.32 350.25 279.15 327.68 279.15 327.68 250.7 346.95 220.64 331.85 220.64 331.85 203.28 337.23 177.68 329.08 177.68 329.08 133.62 342.22 116.12 323.71 116.12 323.71 85.96 333.67 61.26 308.58 61.26 308.58 14.29 306.44 9.29 260.74 9.29 260.74-13.93 225.24 14.06 193.7M13.5 194.5L15.5 191.5" id="Line" stroke="#515151" stroke-width="3" stroke-linecap="square" sketch:type="MSShapeGroup"/><text id="?" sketch:type="MSTextLayer" transform="translate(58.000000, 72.099825) rotate(-30.000000) translate(-58.000000, -72.099825) " font-family="Museo Sans Rounded" font-size="72" font-weight="260" sketch:alignment="middle" letter-spacing="1.11" fill="#515151"><tspan x="41" y="87.6">?</tspan></text><text id="?-copy" sketch:type="MSTextLayer" font-family="Museo Sans Rounded" font-size="72" font-weight="260" sketch:alignment="middle" letter-spacing="1.11" fill="#515151"><tspan x="201.95" y="67.6">?</tspan></text><text id="?-copy-2" sketch:type="MSTextLayer" transform="translate(372.000000, 71.888970) rotate(-345.000000) translate(-372.000000, -71.888970) " font-family="Museo Sans Rounded" font-size="72" font-weight="260" sketch:alignment="middle" letter-spacing="1.11" fill="#515151"><tspan x="355" y="87.39">?</tspan></text>
    </g>
  </g>
</svg>
