<?xml version="1.0" encoding="UTF-8" standalone="no"?>
<svg width="442px" height="325px" viewBox="0 0 442 325" version="1.1" xmlns="http://www.w3.org/2000/svg" xmlns:xlink="http://www.w3.org/1999/xlink" xmlns:sketch="http://www.bohemiancoding.com/sketch/ns">
    <title>Icon-Musings</title>
    <description>Created with Sketch (http://www.bohemiancoding.com/sketch)</description>
    <defs></defs>
    <g id="Page-1" stroke="none" stroke-width="1" fill="none" fill-rule="evenodd" sketch:type="MSPage">
        <g id="Icon---Musings" sketch:type="MSLayerGroup" transform="translate(2.000000, -15.000000)">
            <path d="M57.5,182.5 C57.5,182.5 45.2011719,231.615234 35.8457031,245.507812 C26.4902339,259.40039 9.5,260.5 9.5,260.5" id="Line" stroke="#515151" stroke-width="3" stroke-linecap="square" sketch:type="MSShapeGroup"></path>
            <path d="M85.5,297.5 C85.5,297.5 61.769531,284.396484 52.6699219,254.308594 C43.5703131,224.220702 57.5,183.5 57.5,183.5" id="Line" stroke="#515151" stroke-width="3" stroke-linecap="square" sketch:type="MSShapeGroup"></path>
            <path d="M116.5,323.5 C116.5,323.5 123.753906,309.201172 118.933594,293.462891 C114.113282,277.724608 98.5,257.5 98.5,257.5" id="Line" stroke="#515151" stroke-width="3" stroke-linecap="square" sketch:type="MSShapeGroup"></path>
            <path d="M205.5,277.5 C205.5,277.5 200.140625,282.048828 185.030273,285.586914 C169.919922,289.125 155.186299,295.566281 145.640625,300.5 C134.478205,306.269341 116.5,323.5 116.5,323.5" id="Line" stroke="#515151" stroke-width="3" stroke-linecap="square" sketch:type="MSShapeGroup"></path>
            <path d="M125.5,179.5 C125.5,179.5 84.6757828,202.300781 90.4472656,239.4375 C96.2187498,276.574219 150.5,285.5 150.5,285.5" id="Line" stroke="#515151" stroke-width="3" stroke-linecap="square" sketch:type="MSShapeGroup"></path>
            <path d="M66,138 C66,138 84.5750432,146.393656 91.7923212,162.446827 C99.0095985,178.5 91.7923212,219 91.7923212,219" id="Line" stroke="#515151" stroke-width="3" stroke-linecap="square" sketch:type="MSShapeGroup"></path>
            <path d="M173.894745,190 C173.894745,190 129.531042,222.697192 134.368724,262.059051 C139.206408,301.420911 187,284.290118 187,284.290118" id="Line" stroke="#515151" stroke-width="3" stroke-linecap="square" sketch:type="MSShapeGroup"></path>
            <path d="M112.5,129.5 C112.5,129.5 96.6390246,145.053293 88.5,146.240234 C80.6390246,147.386627 64.5,136.5 64.5,136.5" id="Line" stroke="#515151" stroke-width="3" stroke-linecap="square" sketch:type="MSShapeGroup"></path>
            <path d="M155.5,106.5 C155.5,106.5 100.645518,122.361328 100.179687,153.880859 C99.7138576,185.400391 152.5,179.5 152.5,179.5" id="Line" stroke="#515151" stroke-width="3" stroke-linecap="square" sketch:type="MSShapeGroup"></path>
            <path d="M132.5,153.5 C132.5,153.5 180.447266,147.310547 185.767578,173.445312 C188.612308,187.419371 144.552734,205.4375 136.5,218.72266 C128.447265,232.00782 136.5,237.5 136.5,237.5" id="Line" stroke="#515151" stroke-width="3" stroke-linecap="square" sketch:type="MSShapeGroup"></path>
            <path d="M185,169.990397 C185,169.990397 203.002384,109.310225 243.5,112.092859 C283.997617,114.875492 302,178 302,178" id="Line" stroke="#515151" stroke-width="3" stroke-linecap="square" sketch:type="MSShapeGroup"></path>
            <path d="M163,154 C163,154 177.992077,150.806831 186.5,145.738281 C193.658744,141.473498 210,126 210,126" id="Line" stroke="#515151" stroke-width="3" stroke-linecap="square" sketch:type="MSShapeGroup"></path>
            <path d="M185.341797,330.66992 C185.341797,330.66992 226.341797,306.666014 223.285156,276.578125 C220.228515,246.490236 179.5,251.5 179.5,251.5" id="Line" stroke="#515151" stroke-width="3" stroke-linecap="square" sketch:type="MSShapeGroup"></path>
            <path d="M288,108 C288,108 298.166015,125.777519 299.519531,138.891325 C300.873047,152.005131 301,174 301,174" id="Line" stroke="#515151" stroke-width="3" stroke-linecap="square" sketch:type="MSShapeGroup"></path>
            <path d="M253,285.127061 C253,285.127061 233.522801,277.621975 223.407664,290.806896 C213.292526,303.991816 220.470107,332 220.470107,332" id="Line" stroke="#515151" stroke-width="3" stroke-linecap="square" sketch:type="MSShapeGroup"></path>
            <path d="M179.5,251.5 C179.5,251.5 217.827886,230.780792 229.660156,214.761719 C239.494552,201.447459 244.5,163.5 244.5,163.5" id="Line" stroke="#515151" stroke-width="3" stroke-linecap="square" sketch:type="MSShapeGroup"></path>
            <path d="M337,287.769465 C337,287.769465 337,317.000008 297.632812,317 C258.265625,316.999995 222,225 222,225" id="Line" stroke="#515151" stroke-width="3" stroke-linecap="square" sketch:type="MSShapeGroup"></path>
            <path d="M242.5,158.5 C242.5,158.5 251.485256,181.275137 266.316406,198.988281 C280.326813,215.721196 296.814453,227.8125 317.734375,217.650391 C356.121605,199.00332 340.5,123.5 340.5,123.5" id="Line" stroke="#515151" stroke-width="3" stroke-linecap="square" sketch:type="MSShapeGroup"></path>
            <path d="M267,200 C267,200 283.746094,216.393656 290.873047,229 C298,241.606343 298,258 298,258" id="Line" stroke="#515151" stroke-width="3" stroke-linecap="square" sketch:type="MSShapeGroup"></path>
            <path d="M296.5,277.5 C296.5,277.5 296.279297,218.421877 332.548828,215.775391 C368.818359,213.128906 380.5,273.5 380.5,273.5" id="Line" stroke="#515151" stroke-width="3" stroke-linecap="square" sketch:type="MSShapeGroup"></path>
            <path d="M400.057471,200 C400.057471,200 407.576342,227.002777 393.028836,235.847117 C378.481331,244.691458 355,223.427092 355,223.427092" id="Line" stroke="#515151" stroke-width="3" stroke-linecap="square" sketch:type="MSShapeGroup"></path>
            <path d="M337.656309,266 C337.656309,266 337.922598,272.305182 337.656309,278.194867 C337.255494,287.059951 336.405049,297.41222 337.656309,303.258361 C339.354981,311.194894 349,319 349,319" id="Line" stroke="#515151" stroke-width="3" stroke-linecap="square" sketch:type="MSShapeGroup"></path>
            <path d="M428.5,266.5 C428.5,266.5 403.613281,307 376.568359,302.027344 C349.523436,297.054689 334.5,258.5 334.5,258.5" id="Line" stroke="#515151" stroke-width="3" stroke-linecap="square" sketch:type="MSShapeGroup"></path>
            <path d="M379.5,216.5 C379.5,216.5 356.797522,196.439453 358.017578,171.5 C359.237634,146.560547 372.5,126.5 372.5,126.5" id="Line" stroke="#515151" stroke-width="3" stroke-linecap="square" sketch:type="MSShapeGroup"></path>
            <path d="M380.5,274.5 C380.5,274.5 407.05664,256.970702 410.037109,233.050781 C413.017578,209.130859 384.492188,186.751953 390,167.130859 C391.691899,161.103621 399.5,150.5 399.5,150.5" id="Line" stroke="#515151" stroke-width="3" stroke-linecap="square" sketch:type="MSShapeGroup"></path>
            <path d="M15.6796875,192.910156 C15.6796875,192.910156 12.5865664,175.780957 25.0282812,159.185195 C32.2059178,149.611086 44.5537737,140.214512 65.6484375,134.386719 C65.6484375,134.386719 82.5253878,120.730466 97.0488281,120.730469 C97.0488281,120.730469 112.593755,96.5488287 156.697266,106.25 C156.697266,106.25 179.855473,83.1777346 217.255859,100.367188 C217.255859,100.367188 250.707043,78.890623 282.287109,106.638672 C282.287109,106.638672 319.203128,100.286134 335.503901,122.49707 C335.503901,122.49707 381.424816,114.146486 398.615234,150.297852 C398.615234,150.297852 429.621096,168.575188 425.91894,200.632811 C425.91894,200.632811 457.748061,236.862299 416.540039,282.344727 C416.540039,282.344727 402.52735,333.02636 349.057617,318.819336 C349.057617,318.819336 321.318363,350.247065 279.145508,327.68457 C279.145508,327.68457 250.70313,346.94726 220.639648,331.851562 C220.639648,331.851562 203.277349,337.231439 177.676758,329.081055 C177.676758,329.081055 133.624999,342.22265 116.119141,323.708984 C116.119141,323.708984 85.9638652,333.667963 61.2626953,308.577148 C61.2626953,308.577148 14.2910195,306.444315 9.29003906,260.739258 C9.29003906,260.739258 -13.9306674,225.244141 14.0595703,193.697266" id="Path-97" stroke="#515151" stroke-width="3" sketch:type="MSShapeGroup"></path>
            <path d="M13.5,194.5 L15.5,191.5" id="Line" stroke="#515151" stroke-width="3" stroke-linecap="square" sketch:type="MSShapeGroup"></path>
            <text id="?" sketch:type="MSTextLayer" transform="translate(58.000000, 72.099825) rotate(-30.000000) translate(-58.000000, -72.099825) " font-family="Museo Sans Rounded" font-size="72" font-weight="260" sketch:alignment="middle" letter-spacing="1.10769236" fill="#515151">
                <tspan x="41" y="87.5998249">?</tspan>
            </text>
            <text id="?-copy" sketch:type="MSTextLayer" font-family="Museo Sans Rounded" font-size="72" font-weight="260" sketch:alignment="middle" letter-spacing="1.10769236" fill="#515151">
                <tspan x="201.948981" y="67.5998249">?</tspan>
            </text>
            <text id="?-copy-2" sketch:type="MSTextLayer" transform="translate(372.000000, 71.888970) rotate(-345.000000) translate(-372.000000, -71.888970) " font-family="Museo Sans Rounded" font-size="72" font-weight="260" sketch:alignment="middle" letter-spacing="1.10769236" fill="#515151">
                <tspan x="355" y="87.3889704">?</tspan>
            </text>
        </g>
    </g>
</svg>