<svg width="80px" height="70px" viewBox="0 0 401 354" version="1.1" xmlns="http://www.w3.org/2000/svg" xmlns:xlink="http://www.w3.org/1999/xlink" xmlns:sketch="http://www.bohemiancoding.com/sketch/ns">
    <g id="icon-logo" stroke="none" stroke-width="1" fill="none" fill-rule="evenodd" sketch:type="MSPage">
        <g id="inner" sketch:type="MSLayerGroup" transform="translate(0.000000, -6.000000)" stroke="#606060">
            <path d="M0.45112782,183.203125 C0.45112782,85.5609023 79.5821905,6.40625 177.195314,6.40625 C264.112556,6.40625 336.376146,69.1646552 351.169026,151.851641 C355.558429,149.887026 360.433397,148.792995 365.567407,148.792995 C384.833155,148.792995 400.451128,164.198934 400.451128,183.203125 C400.451128,202.207316 384.833155,217.613255 365.567407,217.613255 C360.580777,217.613255 355.83853,216.581134 351.548236,214.721644 C337.654036,303.884373 253.453185,360 177.195314,360 C79.5821905,360 0.45112782,280.845348 0.45112782,183.203125 Z" id="Head" stroke-width="3.75" fill-opacity="0" fill="#606060" sketch:type="MSShapeGroup"></path>
            <path d="M309.862287,257.077061 C292.217602,256.810371 283.086724,265.879175 268.691364,269.397852 C255.991464,271.60168 233.401945,269.397851 233.401999,251.640626 C233.402016,245.937501 239.283559,223.125001 262.809803,223.125001 C283.164471,223.125001 280.454486,240.449124 280.454486,240.234375 C280.454486,239.322922 274.572924,228.828124 262.809803,234.53125 C262.809803,234.53125 251.046681,240.234376 251.046681,251.640626 C251.04668,257.343751 258.510558,260.634397 268.691364,257.34375 C286.336046,251.640625 286.336046,240.234375 309.862287,240.234375 C333.388527,240.234375 337.474454,251.928416 337.973427,252.563807 C336.760213,256.338068 331.960379,265.104189 330.544856,268.750001 C330.544856,268.750001 327.506972,257.34375 309.862287,257.077061 Z" id="Stache" stroke-width="2.85714286" fill="#606060" sketch:type="MSShapeGroup" transform="translate(285.687713, 246.613534) rotate(1.000000) translate(-285.687713, -246.613534) "></path>
            <path d="M192.761344,130.500031 C170.525614,130.500032 152.499998,147.764684 152.5,169.06171 C152.500002,190.358735 170.525621,207.623384 192.761348,207.623382 M190.744718,161.766885 C197.004286,162.094935 201.830891,167.300538 201.549869,173.420486 C201.267585,179.567917 195.940028,184.315788 189.650438,184.025152 C189.650438,184.025152 204.39634,187.149584 203.839457,197.775546 C203.282574,208.401509 191.057683,207.599473 188.593911,207.470353" id="Ear" stroke-width="2.85714286" fill-opacity="0" fill="#D8D8D8" sketch:type="MSShapeGroup"></path>
            <path d="M331.724851,117.621061 C331.724851,117.621061 299.730578,109.780822 262.956544,117.621061 C262.956544,117.621061 262.13297,121.750386 263.102327,123.771162 C263.102327,123.771162 269.265995,123.893913 269.788327,128.031818 L273.188327,127.878049 C273.188327,127.878049 273.016979,121.608496 275.124966,120.263513 C275.124966,120.263513 297.51066,115.160098 321.692743,120.078066 C321.692743,120.078066 326.271446,121.204605 327.964883,123.548098 C327.964883,123.548098 329.999635,124.017984 331.724851,124.017984 C332.909948,120.692317 331.724851,117.621061 331.724851,117.621061 Z M332.825298,121.158574 C332.825298,121.158574 336.901008,119.12185 340.502147,120.577046 L339.475003,117.778318 C339.475003,117.778318 335.000064,116.954245 332.174015,118.739027 C332.460493,120.034822 332.825298,121.158574 332.825298,121.158574 Z M263.311977,118.103176 C263.311977,118.103176 222.416199,115.629307 182.798559,118.103176 C182.798559,118.103176 154.081013,120.46875 141.999969,148.530873 C141.999969,148.530873 143.279051,153.390609 150.788864,148.530873 C150.788864,148.530873 159.892148,126.171875 183.025336,123.330679 C204.19166,123.076447 218.94178,121.878624 263.312013,123.330679 M271.476927,128.152589 C271.476927,128.152589 265.6487,158.168569 296.158539,158.168564 C326.668378,158.168559 329.293171,129.799171 329.742957,124.058901" id="Glasses" stroke-width="2.25" fill-opacity="0" fill="#D8D8D8" sketch:type="MSShapeGroup"></path>
            <path d="M300.808122,53.9673149 C302.936192,53.9673149 305.049546,53.6218197 307.062278,52.9448737 C317.122122,49.5614278 322.477155,38.8302447 319.02308,28.9761056 C315.569005,19.1219664 304.61381,13.8764331 294.553966,17.259879 C294.248577,17.3625912 293.948843,17.4807145 293.655973,17.613773 C288.977868,19.7391573 286.948349,25.1687035 289.122916,29.7410039 C291.297482,34.3133043 296.85267,36.2969217 301.530775,34.1715374 C306.208881,32.046153 308.2384,26.6166068 306.063833,22.0443064 C306.063833,22.0443064 305.238267,16.0640494 291.543058,7.85194843" id="Hair" stroke-opacity="0.9" stroke-width="2.85714286" sketch:type="MSShapeGroup" transform="translate(304.737476, 28.646141) scale(-1, 1) rotate(-36.000000) translate(-304.737476, -28.646141) "></path>
        </g>
    </g>
</svg>
