<?xml version="1.0" encoding="UTF-8" standalone="no"?>
<svg width="606px" height="404px" viewBox="0 0 606 404" version="1.1" xmlns="http://www.w3.org/2000/svg" xmlns:xlink="http://www.w3.org/1999/xlink" xmlns:sketch="http://www.bohemiancoding.com/sketch/ns">
    <title>Icon-Projects</title>
    <description>Created with Sketch (http://www.bohemiancoding.com/sketch)</description>
    <defs></defs>
    <g id="Page-1" stroke="none" stroke-width="1" fill="none" fill-rule="evenodd" sketch:type="MSPage">
        <g id="Icon---Projects" sketch:type="MSLayerGroup" transform="translate(3.000000, 3.000000)">
            <path d="M16.0098478,0 C7.16785301,0 0,7.16212903 0,16.0020576 L0,381.997942 C0,390.835635 7.15626776,398 16.0098478,398 L583.990152,398 C592.832147,398 600,390.837871 600,381.997942 L600,16.0020576 C600,7.16436521 592.843732,0 583.990152,0 L16.0098478,0 Z M14,66 L14,367.994299 C14,377.938573 22.0586079,386 32.0038242,386 L567.996176,386 C577.939413,386 586,377.949886 586,367.994299 L586,66 L14,66 Z" id="Rectangle-8" stroke="#2C3032" stroke-width="3" fill="#A5ABAC" sketch:type="MSShapeGroup"></path>
            <path d="M235.796639,196.681416 L246.318019,207.202796 L264.702796,188.818019 L254.726309,178.841533 C259.756791,165.269985 257.09409,147.517831 243.627416,140.372582 C228.987794,132.604981 208.856446,142.59961 203.613281,126.916016 C198.370117,111.232423 210.022925,106.768091 210.022925,106.768091 C210.022925,106.768091 178.387695,110.208985 176.575196,138.545897 C174.762695,166.882809 191.708774,180.173699 198.619142,187.083983 C207.658243,196.122974 223.215542,200.124766 235.796639,196.681416 Z M255.960895,217.052778 C255.960895,217.052778 379.621593,350.273935 393.947751,335.947751 C408.273911,321.621569 275.052778,197.960895 275.052778,197.960895 L255.960895,217.052778 Z" id="Rectangle-6" fill="#2C3032" sketch:type="MSShapeGroup"></path>
            <path d="M396.162396,197.837604 L391.193349,202.806651 L340.095892,151.709195 L339.767767,152.03732 C339.767767,152.03732 320.720702,131.232421 306.232422,121.86621 C291.744141,112.500001 285.225586,111.607422 285.225586,111.607422 C285.225586,111.607422 297.139149,102.059092 329.038086,100.863282 C357.930253,99.7801879 373.451566,112.476054 376.120918,114.879082 L376.462901,114.537099 L427.962901,166.037099 L423.513996,170.486004 C425.47588,170.066835 426.74787,169.858077 426.74787,169.858077 C429.45654,169.299515 433.241554,170.472001 435.19638,172.426828 L453.573172,190.80362 C455.529939,192.760387 455.919029,196.237613 454.446562,198.574556 C454.446562,198.574556 452.408204,203.1416 440.774902,214.774902 C429.141602,226.408205 424.574557,228.446563 424.574557,228.446563 C422.272233,229.96329 418.758446,229.527999 416.80362,227.573172 L398.426828,209.19638 C396.470061,207.239613 395.253816,203.446763 395.705935,200.720476 C395.705935,200.720476 395.840449,199.603107 396.162396,197.837604 Z M352.476368,168.476368 L198.163889,314.427527 C196.157098,316.325582 195.858289,319.661782 197.520469,321.872757 C197.520469,321.872757 203.451006,330.111168 208.664548,335.324709 C213.982582,340.642743 222.124634,346.481456 222.124634,346.481456 C224.333973,348.1259 227.690115,347.856934 229.618947,345.882584 L378,194 L352.476368,168.476368 Z" id="Hammer" fill="#2C3032" sketch:type="MSShapeGroup"></path>
            <circle id="Button---Start" fill="#2C3032" sketch:type="MSShapeGroup" cx="29" cy="35" r="15"></circle>
            <circle id="Button---Mid" fill="#4A4E51" sketch:type="MSShapeGroup" cx="69" cy="35" r="15"></circle>
            <circle id="Button---End" fill="#4A4E51" sketch:type="MSShapeGroup" cx="109" cy="35" r="15"></circle>
        </g>
    </g>
</svg>