<svg class='hide'>
  <defs>

    <g id="icon-github" stroke="none" stroke-width="1" fill="none" fill-rule="evenodd" sketch:type="MSPage">
      <g sketch:type="MSLayerGroup" transform="translate(0.000000, -5.000000)">
        <path d="M120.32 17.88C113.54 16.05 106.19 15.04 98.52 15.04 90.63 15.04 83.18 16.1 76.36 18.04L76.36 18.04C75.41 17.13 72.59 14.59 67.89 11.42 61.98 7.44 56.08 5.88 56.08 5.88 56.08 5.88 52.91 9.87 51.93 17.39 51.16 23.26 52.49 28.08 53.11 29.91 43.63 37.73 37.79 48.03 37.21 59.31 35.54 91.72 64.4 103.58 98.52 103.58 132.64 103.58 160.3 92.99 160.3 59.31 160.3 47.63 153.98 37 143.67 29.09 144.32 26.86 145.26 22.53 144.58 17.39 143.6 9.87 140.44 5.88 140.44 5.88 140.44 5.88 134.53 7.44 128.62 11.42 124.17 14.42 121.41 16.86 120.32 17.88ZM71.03 44.39C59.86 44.39 50.8 53.44 50.8 64.62L50.8 70.27C50.8 85.25 62.9 98.49 77.85 99.61 77.85 99.61 81.73 100.46 98.77 100.46 115.8 100.46 119.7 99.61 119.7 99.61 134.63 98.39 146.73 85.25 146.73 70.27L146.73 64.62C146.73 53.45 137.69 44.39 126.51 44.39L71.03 44.39Z" id="Head" fill="#515151" sketch:type="MSShapeGroup"/><path d="M98.5 90.87C99.28 90.41 100.56 90.22 102.23 90.57 102.07 90.62 101.89 90.64 101.89 90.64 101.89 90.64 102.24 90.61 102.39 90.6 102.74 90.68 103.1 90.79 103.48 90.92 103.31 90.99 103.09 91 103.09 91 103.09 91 103.47 90.97 103.64 90.97 103.73 91 103.82 91.04 103.91 91.07 104.07 91.13 104.23 91.18 104.39 91.22 104.25 91.28 104.1 91.3 104.1 91.3 104.1 91.3 104.34 91.31 104.55 91.26 104.85 91.33 105.16 91.37 105.46 91.39 105.31 91.45 105.12 91.5 105.12 91.5L105.71 91.39C106.14 91.39 106.57 91.34 106.95 91.24 106.84 91.34 106.73 91.39 106.73 91.39 106.73 91.39 107.04 91.29 107.23 91.16 107.66 91 108.01 90.78 108.23 90.49 108.21 90.61 108.16 90.71 108.16 90.71 108.16 90.71 108.37 90.3 108.39 90.2 108.39 90.19 108.39 90.19 108.4 90.18 108.46 90 108.47 89.81 108.44 89.6 108.34 88.98 106.31 88.39 107.77 88.13 107.92 88.1 108.07 88.09 108.2 88.09 108.39 88.15 108.65 88.21 108.65 88.21 108.65 88.21 108.52 88.18 108.4 88.09 109.49 88.2 110.13 89.17 109.9 90.54 109.87 90.73 109.83 90.93 109.76 91.13 109.74 91.16 109.72 91.18 109.7 91.21 109.65 91.3 109.4 91.67 109.4 91.67 109.4 91.67 109.52 91.49 109.67 91.37 109.51 91.8 109.26 92.24 108.9 92.64 108.9 92.64 108.89 92.66 108.88 92.67 108.87 92.69 108.86 92.7 108.85 92.71 108.83 92.73 108.82 92.74 108.8 92.75 108.72 92.81 108.33 93.03 108.33 93.03 108.33 93.03 108.5 92.93 108.68 92.89 108.16 93.41 107.45 93.88 106.51 94.18 106.47 94.19 106.35 94.19 106.21 94.22 106.03 94.25 105.67 94.28 105.67 94.28 105.67 94.28 105.9 94.25 106.09 94.3 105.46 94.46 104.74 94.55 103.9 94.55 103.85 94.54 103.79 94.53 103.71 94.52 103.53 94.49 103.18 94.41 103.18 94.41 103.18 94.41 103.39 94.45 103.55 94.55 102.6 94.54 101.76 94.47 101.05 94.35 101 94.33 100.91 94.3 100.79 94.27 100.62 94.22 100.28 94.08 100.28 94.08 100.28 94.08 100.49 94.16 100.64 94.28 99.71 94.1 99 93.83 98.5 93.51 98.01 93.83 97.3 94.1 96.37 94.28 96.51 94.16 96.73 94.08 96.73 94.08 96.73 94.08 96.39 94.22 96.21 94.27 96.1 94.3 96.01 94.33 95.96 94.35 95.24 94.47 94.41 94.54 93.45 94.55 93.62 94.45 93.83 94.41 93.83 94.41 93.83 94.41 93.47 94.49 93.29 94.52 93.22 94.53 93.16 94.54 93.11 94.55 92.27 94.55 91.55 94.46 90.92 94.3 91.11 94.25 91.34 94.28 91.34 94.28 91.34 94.28 90.98 94.25 90.8 94.22 90.66 94.19 90.54 94.19 90.5 94.18 89.55 93.88 88.84 93.41 88.32 92.89 88.5 92.93 88.68 93.03 88.68 93.03 88.68 93.03 88.29 92.81 88.21 92.75 88.19 92.74 88.17 92.73 88.16 92.71 88.15 92.7 88.14 92.69 88.13 92.67 88.11 92.66 88.11 92.64 88.11 92.64 87.75 92.24 87.5 91.8 87.34 91.37 87.48 91.49 87.61 91.67 87.61 91.67 87.61 91.67 87.35 91.3 87.3 91.21 87.29 91.18 87.27 91.16 87.25 91.13 87.18 90.93 87.13 90.73 87.1 90.54 86.88 89.17 87.51 88.2 88.61 88.09 88.49 88.18 88.35 88.21 88.35 88.21 88.35 88.21 88.62 88.15 88.81 88.09 88.94 88.09 89.09 88.1 89.23 88.13 90.7 88.39 88.67 88.98 88.57 89.6 88.53 89.81 88.55 90 88.61 90.18 88.61 90.19 88.62 90.19 88.62 90.2 88.64 90.3 88.85 90.71 88.85 90.71 88.85 90.71 88.8 90.61 88.78 90.49 88.99 90.78 89.35 91 89.78 91.16 89.97 91.29 90.28 91.39 90.28 91.39 90.28 91.39 90.16 91.34 90.06 91.24 90.44 91.34 90.87 91.39 91.3 91.39L91.89 91.5C91.89 91.5 91.7 91.45 91.55 91.39 91.85 91.37 92.16 91.33 92.46 91.26 92.66 91.31 92.9 91.3 92.9 91.3 92.9 91.3 92.76 91.28 92.61 91.22 92.78 91.18 92.94 91.13 93.1 91.07 93.19 91.04 93.28 91 93.37 90.97 93.53 90.97 93.92 91 93.92 91 93.92 91 93.7 90.99 93.52 90.92 93.9 90.79 94.27 90.68 94.62 90.6 94.77 90.61 95.11 90.64 95.11 90.64 95.11 90.64 94.94 90.62 94.78 90.57 96.45 90.22 97.73 90.41 98.5 90.87Z" id="Oval-57-copy" fill="#515151" sketch:type="MSShapeGroup"/><path d="M0.12 66.46C0.12 66.46 10.91 64.57 23.4 63.85 35.88 63.14 44.67 63.85 44.67 63.85" id="Whisker" stroke="#515151" stroke-width="0.74" stroke-linecap="square" sketch:type="MSShapeGroup"/><path d="M2.59 72.87C2.59 72.87 13.37 70.98 25.86 70.27 38.35 69.56 47.13 70.27 47.13 70.27" id="Whisker-copy" stroke="#515151" stroke-width="0.74" stroke-linecap="square" sketch:type="MSShapeGroup" transform="translate(24.784217, 71.516646) rotate(-5.000000) translate(-24.784217, -71.516646) "/><path d="M153.02 66.46C153.02 66.46 163.81 64.57 176.29 63.85 188.78 63.14 197.57 63.85 197.57 63.85" id="Whisker-copy" stroke="#515151" stroke-width="0.74" stroke-linecap="square" sketch:type="MSShapeGroup" transform="translate(175.215783, 65.104809) scale(-1, 1) translate(-175.215783, -65.104809) "/><path d="M155.49 72.87C155.49 72.87 166.27 70.98 178.76 70.27 191.25 69.56 200.03 70.27 200.03 70.27" id="Whisker-copy-2" stroke="#515151" stroke-width="0.74" stroke-linecap="square" sketch:type="MSShapeGroup" transform="translate(177.681874, 71.516646) scale(-1, 1) rotate(-5.000000) translate(-177.681874, -71.516646) "/><circle id="Nose" fill="#515151" sketch:type="MSShapeGroup" cx="98.64" cy="83.85" r="2.47"/><ellipse id="Eye---Left" fill="#515151" sketch:type="MSShapeGroup" cx="73.98" cy="67.32" rx="9.86" ry="14.06"/><ellipse id="Eye---Right" fill="#515151" sketch:type="MSShapeGroup" cx="123.3" cy="67.32" rx="9.86" ry="14.06"/>
      </g>
    </g>

    <g id='icon-flickr'>
      <path d="M46.875 24.375c-4.136 0-7.5 3.364-7.5 7.5s3.364 7.5 7.5 7.5c4.136 0 7.5-3.364 7.5-7.5 0-4.136-3.364-7.5-7.5-7.5zM46.875 18.75v0c7.249 0 13.125 5.876 13.125 13.125 0 7.249-5.876 13.125-13.125 13.125-7.249 0-13.125-5.876-13.125-13.125 0-7.249 5.876-13.125 13.125-13.125zM0 31.875c0-7.249 5.876-13.125 13.125-13.125s13.125 5.876 13.125 13.125c0 7.249-5.876 13.125-13.125 13.125-7.249 0-13.125-5.876-13.125-13.125z" fill="#000000" />
    </g>

    <g id='icon-codepen' >
      <path class="inner-box" d="M97.147 48.319c-0.007-0.047-0.019-0.092-0.026-0.139c-0.016-0.09-0.032-0.18-0.056-0.268 c-0.014-0.053-0.033-0.104-0.05-0.154c-0.025-0.078-0.051-0.156-0.082-0.232c-0.021-0.053-0.047-0.105-0.071-0.156 c-0.033-0.072-0.068-0.143-0.108-0.211c-0.029-0.051-0.061-0.1-0.091-0.148c-0.043-0.066-0.087-0.131-0.135-0.193 c-0.035-0.047-0.072-0.094-0.109-0.139c-0.051-0.059-0.104-0.117-0.159-0.172c-0.042-0.043-0.083-0.086-0.127-0.125 c-0.059-0.053-0.119-0.104-0.181-0.152c-0.048-0.037-0.095-0.074-0.145-0.109c-0.019-0.012-0.035-0.027-0.053-0.039L61.817 23.5 c-1.072-0.715-2.468-0.715-3.54 0L24.34 46.081c-0.018 0.012-0.034 0.027-0.053 0.039c-0.05 0.035-0.097 0.072-0.144 0.1 c-0.062 0.049-0.123 0.1-0.181 0.152c-0.045 0.039-0.086 0.082-0.128 0.125c-0.056 0.055-0.108 0.113-0.158 0.2 c-0.038 0.045-0.075 0.092-0.11 0.139c-0.047 0.062-0.092 0.127-0.134 0.193c-0.032 0.049-0.062 0.098-0.092 0.1 c-0.039 0.068-0.074 0.139-0.108 0.211c-0.024 0.051-0.05 0.104-0.071 0.156c-0.031 0.076-0.057 0.154-0.082 0.2 c-0.017 0.051-0.035 0.102-0.05 0.154c-0.023 0.088-0.039 0.178-0.056 0.268c-0.008 0.047-0.02 0.092-0.025 0.1 c-0.019 0.137-0.029 0.275-0.029 0.416V71.36c0 0.1 0 0.3 0 0.418c0.006 0 0 0.1 0 0.1 c0.017 0.1 0 0.2 0.1 0.268c0.015 0.1 0 0.1 0.1 0.154c0.025 0.1 0.1 0.2 0.1 0.2 c0.021 0.1 0 0.1 0.1 0.154c0.034 0.1 0.1 0.1 0.1 0.213c0.029 0 0.1 0.1 0.1 0.1 c0.042 0.1 0.1 0.1 0.1 0.193c0.035 0 0.1 0.1 0.1 0.139c0.05 0.1 0.1 0.1 0.2 0.2 c0.042 0 0.1 0.1 0.1 0.125c0.058 0.1 0.1 0.1 0.2 0.152c0.047 0 0.1 0.1 0.1 0.1 c0.019 0 0 0 0.1 0.039L58.277 96.64c0.536 0.4 1.2 0.5 1.8 0.537c0.616 0 1.233-0.18 1.77-0.537 l33.938-22.625c0.018-0.012 0.034-0.027 0.053-0.039c0.05-0.035 0.097-0.072 0.145-0.109c0.062-0.049 0.122-0.1 0.181-0.152 c0.044-0.039 0.085-0.082 0.127-0.125c0.056-0.055 0.108-0.113 0.159-0.172c0.037-0.045 0.074-0.09 0.109-0.139 c0.048-0.062 0.092-0.127 0.135-0.193c0.03-0.049 0.062-0.098 0.091-0.146c0.04-0.07 0.075-0.141 0.108-0.213 c0.024-0.051 0.05-0.102 0.071-0.154c0.031-0.078 0.057-0.156 0.082-0.234c0.017-0.051 0.036-0.102 0.05-0.154 c0.023-0.088 0.04-0.178 0.056-0.268c0.008-0.045 0.02-0.092 0.026-0.137c0.018-0.139 0.028-0.277 0.028-0.418V48.735 C97.176 48.6 97.2 48.5 97.1 48.319z M63.238 32.073l25.001 16.666L77.072 56.21l-13.834-9.254V32.073z M56.856 32.1 v14.883L43.023 56.21l-11.168-7.471L56.856 32.073z M29.301 54.708l7.983 5.34l-7.983 5.34V54.708z M56.856 88.022L31.855 71.4 l11.168-7.469l13.833 9.252V88.022z M60.048 67.597l-11.286-7.549l11.286-7.549l11.285 7.549L60.048 67.597z M63.238 88.022V73.14 l13.834-9.252l11.167 7.469L63.238 88.022z M90.794 65.388l-7.982-5.34l7.982-5.34V65.388z"/>
    </g>

    <g id='icon-twitter'>
      <path d="M60 11.392c-2.208 0.979-4.58 1.641-7.070 1.938 2.541-1.523 4.493-3.936 5.412-6.81-2.379 1.411-5.013 2.435-7.817 2.987-2.245-2.392-5.445-3.887-8.985-3.887-6.798 0-12.31 5.511-12.31 12.309 0 0.965 0.109 1.904 0.319 2.805-10.23-0.514-19.301-5.414-25.372-12.862-1.060 1.818-1.667 3.933-1.667 6.189 0 4.271 2.173 8.039 5.476 10.246-2.018-0.064-3.916-0.618-5.575-1.54-0.001 0.051-0.001 0.103-0.001 0.155 0 5.964 4.243 10.939 9.874 12.070-1.033 0.281-2.12 0.432-3.243 0.432-0.793 0-1.564-0.077-2.316-0.221 1.567 4.89 6.112 8.45 11.499 8.549-4.213 3.302-9.521 5.27-15.288 5.27-0.994 0-1.973-0.058-2.936-0.172 5.448 3.493 11.918 5.531 18.87 5.531 22.642 0 35.024-18.757 35.024-35.024 0-0.534-0.012-1.065-0.036-1.593 2.406-1.736 4.493-3.904 6.143-6.372z" fill="#000000" />
    </g>

  </defs>
</svg>
