<svg role="img" xmlns="http://www.w3.org/2000/svg" version="1.1" width="30" height="60" viewBox="0 20 60 40" class="icon icon-twitter"><title>twitter</title><path d="M60 11.392c-2.208 0.979-4.58 1.641-7.07 1.938 2.541-1.523 4.493-3.936 5.412-6.81-2.379 1.411-5.013 2.435-7.817 2.987-2.245-2.392-5.445-3.887-8.985-3.887-6.798 0-12.31 5.511-12.31 12.309 0 0.965 0.109 1.904 0.319 2.805-10.23-0.514-19.301-5.414-25.372-12.862-1.06 1.818-1.667 3.933-1.667 6.189 0 4.271 2.173 8.039 5.476 10.246-2.018-0.064-3.916-0.618-5.575-1.54-0.001 0.051-0.001 0.103-0.001 0.155 0 5.964 4.243 10.939 9.874 12.07-1.033 0.281-2.12 0.432-3.243 0.432-0.793 0-1.564-0.077-2.316-0.221 1.567 4.89 6.112 8.45 11.499 8.549-4.213 3.302-9.521 5.27-15.288 5.27-0.994 0-1.973-0.058-2.936-0.172 5.448 3.493 11.918 5.531 18.87 5.531 22.642 0 35.024-18.757 35.024-35.024 0-0.534-0.012-1.065-0.036-1.593 2.406-1.736 4.493-3.904 6.143-6.372z"/></svg>
