<?xml version="1.0" encoding="UTF-8" standalone="no"?>
<svg width="286px" height="496px" viewBox="0 0 286 496" version="1.1" xmlns="http://www.w3.org/2000/svg" xmlns:xlink="http://www.w3.org/1999/xlink" xmlns:sketch="http://www.bohemiancoding.com/sketch/ns">
    <title>Icon-Tardis</title>
    <description>Created with Sketch (http://www.bohemiancoding.com/sketch)</description>
    <defs></defs>
    <g id="Page-1" stroke="none" stroke-width="1" fill="none" fill-rule="evenodd" sketch:type="MSPage">
        <g id="Icon---Tardis" sketch:type="MSLayerGroup">
            <rect id="Rectangle-10" fill="#515151" sketch:type="MSShapeGroup" x="8" y="96" width="270" height="400"></rect>
            <path d="M160.213867,46 L126.353516,46 L18,66 L18,81 L268,81 L268,66 L160.213867,46 Z" id="Rectangle-11-copy" fill="#515151" sketch:type="MSShapeGroup"></path>
            <rect id="Rectangle-16" stroke="#515151" sketch:type="MSShapeGroup" x="128" y="0" width="30" height="38"></rect>
            <rect id="Rectangle-13" stroke="#979797" fill="#515151" sketch:type="MSShapeGroup" x="0" y="479" width="286" height="17"></rect>
            <rect id="Rectangle-14" fill="#515151" sketch:type="MSShapeGroup" x="126" y="37" width="34" height="9"></rect>
            <rect id="Rectangle-14-copy" fill="#515151" sketch:type="MSShapeGroup" x="126" y="1" width="34" height="5"></rect>
            <rect id="Rectangle-19" fill="#D8D8D8" sketch:type="MSShapeGroup" x="138" y="141" width="10" height="338"></rect>
            <path d="M19.9941073,111 C18.8927923,111 18,111.89784 18,112.991617 L18,139.008383 C18,140.108323 18.9052455,141 19.9941073,141 L266.005893,141 C267.107208,141 268,140.10216 268,139.008383 L268,112.991617 C268,111.891677 267.094754,111 266.005893,111 L19.9941073,111 Z M25,115 L25,137 L261,137 L261,115 L25,115 Z" id="Sign" fill="#D8D8D8" sketch:type="MSShapeGroup"></path>
            <rect id="Rectangle-11" stroke="#979797" fill="#515151" sketch:type="MSShapeGroup" x="14" y="78" width="258" height="18"></rect>
            <path d="M35.5,139.5 L35.5,478.831696" id="Line" stroke="#D8D8D8" stroke-linecap="square" sketch:type="MSShapeGroup"></path>
            <path d="M251.5,139.5 L251.5,478.831696" id="Line-copy" stroke="#D8D8D8" stroke-linecap="square" sketch:type="MSShapeGroup"></path>
            <path d="M47,157 L47,247 L127,247 L127,157 L47,157 Z M53,164 L53,199 L73,199 L73,164 L53,164 Z M77,164 L77,199 L97,199 L97,164 L77,164 Z M102,164 L102,199 L122,199 L122,164 L102,164 Z M53,206 L53,241 L73,241 L73,206 L53,206 Z M77,206 L77,241 L97,241 L97,206 L77,206 Z M102,206 L102,241 L122,241 L122,206 L102,206 Z" id="Rectangle-20" fill="#D8D8D8" sketch:type="MSShapeGroup"></path>
            <path d="M159,157 L159,247 L239,247 L239,157 L159,157 Z M165,164 L165,199 L185,199 L185,164 L165,164 Z M189,164 L189,199 L209,199 L209,164 L189,164 Z M214,164 L214,199 L234,199 L234,164 L214,164 Z M165,206 L165,241 L185,241 L185,206 L165,206 Z M189,206 L189,241 L209,241 L209,206 L189,206 Z M214,206 L214,241 L234,241 L234,206 L214,206 Z" id="Rectangle-20-copy" fill="#D8D8D8" sketch:type="MSShapeGroup"></path>
            <rect id="Rectangle-34" fill="#313131" sketch:type="MSShapeGroup" x="48" y="265" width="80" height="90"></rect>
            <rect id="Rectangle-34-copy" fill="#313131" sketch:type="MSShapeGroup" x="48" y="374" width="80" height="90"></rect>
            <rect id="Rectangle-34-copy" fill="#313131" sketch:type="MSShapeGroup" x="159" y="265" width="80" height="90"></rect>
            <rect id="Rectangle-34-copy-2" fill="#313131" sketch:type="MSShapeGroup" x="159" y="374" width="80" height="90"></rect>
            <text id="POLICE" sketch:type="MSTextLayer" font-family="Helvetica" font-size="13" font-weight="260" sketch:alignment="middle" letter-spacing="0.200000003" fill="#D8D8D8">
                <tspan x="63.286" y="131">POLICE</tspan>
            </text>
            <text id="BOX" sketch:type="MSTextLayer" font-family="Helvetica" font-size="13" font-weight="260" sketch:alignment="middle" letter-spacing="0.200000003" fill="#D8D8D8">
                <tspan x="185.336" y="131">BOX</tspan>
            </text>
        </g>
    </g>
</svg>