<?xml version="1.0" encoding="UTF-8" standalone="no"?>
<svg width="342px" height="382px" viewBox="0 0 342 382" version="1.1" xmlns="http://www.w3.org/2000/svg" xmlns:xlink="http://www.w3.org/1999/xlink" xmlns:sketch="http://www.bohemiancoding.com/sketch/ns">
    <title>Icon-Bio</title>
    <description>Created with Sketch (http://www.bohemiancoding.com/sketch)</description>
    <defs></defs>
    <g id="Page-1" stroke="none" stroke-width="1" fill="none" fill-rule="evenodd" sketch:type="MSPage">
        <g id="Icon---Bio" sketch:type="MSLayerGroup" transform="translate(3.000000, -7.000000)">
            <path d="M110.47766,49.7075221 C100.716186,63.0693365 93.3602235,79.6988991 89.3699206,98.2874382 L89.3699206,98.2874382 C87.5590895,97.8165079 85.7703569,97.7835711 84.0531049,98.2437073 C74.1839815,100.888131 70.4129958,118.816639 75.6303722,138.288152 C78.6028068,149.381429 83.8513987,158.582261 89.6428053,163.957322 C97.2607215,197.995603 116.199266,225.303274 140.478322,237.728868 C130.584022,253.089305 119.142096,269 101.394531,269 L78.0040376,269.000001 C34.9235972,269 0,303.92558 0,347.000042 L0,378.004164 C0,382.420142 3.57414307,386 7.99478876,386 L328.005211,386 C332.420611,386 336,382.418485 336,378.004164 L336,347.000042 C336,303.921808 301.071348,269 258.000676,269 L235.984375,269 C218.594973,269 208.209767,253.4017 198.617213,238.183642 L198.617213,238.183642 C223.329926,225.978601 242.644938,198.417134 250.357195,163.957322 C256.148601,158.582261 261.397193,149.381429 264.369628,138.288152 C269.587004,118.816639 265.816019,100.888131 255.946895,98.2437073 C254.229643,97.7835711 252.44091,97.8165079 250.630079,98.2874382 L250.630079,98.2874382 C245.565679,74.695295 235.079842,54.2586905 221.135495,39.6532808 C228.82806,34.0543811 232.914993,28.0446091 231.851699,22.5744378 C230.406764,15.1408924 209.837889,22.9433605 198.966797,20.4433598 C188.095706,17.9433588 180.129531,8.68836655 166.015989,11.4317612 C132.132379,18.0180677 110,33.4238282 109.148301,46.4255622 C109.373609,47.5846707 109.8224,48.6796172 110.47766,49.7075221 Z" id="Chest" stroke="#2C3032" stroke-width="3" sketch:type="MSShapeGroup"></path>
            <path d="M220,261 L169,339 L118,261" id="Path" stroke="#2C3032" stroke-width="3" sketch:type="MSShapeGroup"></path>
            <path d="M158.05976,274.450868 C160.087837,277.847295 163.795032,280.121212 168.032258,280.121212 C172.578653,280.121212 176.514847,277.503356 178.421427,273.689927 L178.421427,273.689927 L196.318439,282.656511 C197.806376,283.401983 199,282.6586 199,281.0039 L199,254.9961 C199,253.33426 197.799424,252.601501 196.318439,253.343489 L178.004756,262.518829 C175.976679,259.122402 172.269484,256.848485 168.032258,256.848485 C164.10711,256.848485 160.636793,258.799783 158.534739,261.787101 L141.681561,253.343489 C140.200576,252.601501 139,253.33426 139,254.9961 L139,281.0039 C139,282.6586 140.193624,283.401983 141.681561,282.656511 L158.05976,274.450868 Z" id="Bowtie" fill="#2C3032" sketch:type="MSShapeGroup"></path>
            <text id="?" sketch:type="MSTextLayer" font-family="Museo Sans Rounded" font-size="144" font-weight="260" sketch:alignment="middle" fill="#000000">
                <tspan x="143.5" y="190">?</tspan>
            </text>
        </g>
    </g>
</svg>