<?xml version="1.0" encoding="UTF-8" standalone="no"?>
<svg width="200px" height="99px" viewBox="0 0 200 99" version="1.1" xmlns="http://www.w3.org/2000/svg" xmlns:xlink="http://www.w3.org/1999/xlink" xmlns:sketch="http://www.bohemiancoding.com/sketch/ns">
    <title>Icon - CodePen</title>
    <description>Created with Sketch (http://www.bohemiancoding.com/sketch)</description>
    <defs></defs>
    <g id="Page-1" stroke="none" stroke-width="1" fill="none" fill-rule="evenodd" sketch:type="MSPage">
        <g id="Icon---GitHub" sketch:type="MSLayerGroup" transform="translate(0.000000, -5.000000)">
            <path d="M120.320443,17.8782605 C113.541365,16.0458071 106.194261,15.0431566 98.5203453,15.0431566 C90.6289917,15.0431566 83.1752823,16.1043187 76.3633962,18.0380669 L76.3633962,18.0380669 C75.4075543,17.1290123 72.5941331,14.5870001 67.893512,11.4210156 C61.9810166,7.43880376 56.0765992,5.878154 56.0765992,5.878154 C56.0765992,5.878154 52.9144071,9.86851303 51.9295604,17.3890262 C51.1610059,23.2578843 52.4876754,28.0764731 53.1074714,29.9099178 C43.6298027,37.7304205 37.7890872,48.0301688 37.2090783,59.3094945 C35.5425401,91.7183647 64.4026297,103.575832 98.5203453,103.575832 C132.638061,103.575832 160.295931,92.9928329 160.295931,59.3094945 C160.29593,47.6281231 153.981516,37.0035526 143.665109,29.0927872 C144.323857,26.8639144 145.258018,22.5293159 144.584872,17.3890262 C143.600026,9.86851303 140.437834,5.878154 140.437834,5.878154 C140.437834,5.878154 134.533416,7.43880376 128.620921,11.4210156 C124.171835,14.417585 121.413381,16.8551741 120.320443,17.8782605 Z M71.0287464,44.3896424 C59.8575355,44.3896424 50.8014797,53.4417232 50.8014797,64.6185441 L50.8014797,70.2722493 C50.8014797,85.2529005 62.9034885,98.4855942 77.845842,99.6068055 C77.845842,99.6068055 81.7335851,100.459985 98.7669544,100.459984 C115.800324,100.459984 119.703653,99.6057872 119.703653,99.6057872 C134.631236,98.3859727 146.732432,85.2527535 146.732431,70.2722493 L146.732431,64.6185441 C146.73243,53.4464302 137.685889,44.3896424 126.505162,44.3896424 L71.0287464,44.3896424 Z" id="Head" fill="#515151" sketch:type="MSShapeGroup"></path>
            <path d="M98.5037274,90.8722043 C99.2797016,90.4146701 100.559286,90.2164526 102.230519,90.5692584 C102.067764,90.6239618 101.892844,90.6365386 101.892844,90.6365386 C101.892844,90.6365386 102.241456,90.6104997 102.390118,90.6043634 C102.738602,90.6840771 103.103474,90.7874474 103.483763,90.9170056 C103.308291,90.9889957 103.091396,91.0045904 103.091396,91.0045904 C103.091396,91.0045904 103.472767,90.9711311 103.63924,90.9711349 C103.729216,91.0031289 103.82003,91.036576 103.911668,91.0715089 C104.067908,91.1310679 104.229144,91.1821046 104.393502,91.224814 C104.245119,91.2760895 104.104638,91.297915 104.104638,91.297915 C104.104638,91.297915 104.343966,91.306581 104.550272,91.2628329 C104.849251,91.3302483 105.156421,91.3708974 105.460859,91.385916 C105.308255,91.4529633 105.121575,91.4958903 105.121575,91.4958903 L105.705069,91.3924913 C106.142131,91.394442 106.567346,91.3434138 106.947662,91.2428432 C106.844164,91.33674 106.725151,91.3887533 106.725151,91.3887533 C106.725151,91.3887533 107.040295,91.2895243 107.229935,91.156074 C107.661134,91.0035159 108.01372,90.7792441 108.228568,90.4894063 C108.207538,90.6115921 108.161376,90.7088676 108.161376,90.7088676 C108.161376,90.7088676 108.366659,90.296332 108.390096,90.2018626 C108.392134,90.193647 108.393839,90.1857275 108.395254,90.1781146 C108.456709,90.0025486 108.474362,89.8093102 108.439534,89.5993017 C108.336465,88.9778007 106.308774,88.3947685 107.773671,88.1270944 C107.922309,88.0999345 108.065463,88.0865537 108.202436,88.0861132 C108.39113,88.1480094 108.654027,88.2111018 108.654027,88.2111018 C108.654027,88.2111018 108.520586,88.1764125 108.400859,88.0948359 C109.493668,88.196359 110.130399,89.1735928 109.904431,90.5361608 C109.873081,90.7252021 109.825125,90.925369 109.757957,91.1314233 C109.738417,91.155852 109.718602,91.183235 109.702814,91.2107172 C109.654375,91.2950348 109.401564,91.6681827 109.401564,91.6681827 C109.401564,91.6681827 109.522635,91.4884165 109.671718,91.3716544 C109.505125,91.7961397 109.255788,92.236471 108.89909,92.6432045 C108.89909,92.6432045 108.894393,92.655189 108.881207,92.6735091 C108.869613,92.6868517 108.857908,92.7001645 108.846093,92.7134459 C108.832949,92.7259929 108.816843,92.7393165 108.797234,92.7526093 C108.716918,92.8070531 108.326928,93.0310582 108.326928,93.0310582 C108.326928,93.0310582 108.503728,92.9288538 108.683409,92.8870484 C108.162499,93.4149407 107.452963,93.8802931 106.505349,94.1837109 C106.465658,94.1853083 106.352212,94.1918246 106.209826,94.2170564 C106.031833,94.248598 105.667487,94.2791871 105.667487,94.2791871 C105.667487,94.2791871 105.90107,94.2548956 106.090653,94.3019981 C105.462085,94.4603269 104.739664,94.5512713 103.901685,94.5512695 C103.85098,94.5399256 103.786403,94.5272632 103.713105,94.5169104 C103.534125,94.4916309 103.178206,94.4075721 103.178206,94.4075721 C103.178206,94.4075721 103.390243,94.4532251 103.553946,94.5487869 C102.598648,94.5353541 101.763892,94.4677999 101.046387,94.3546305 C100.99675,94.3338998 100.906843,94.2989244 100.794678,94.2666011 C100.620941,94.2165341 100.280126,94.0835118 100.280126,94.0835118 C100.280126,94.0835118 100.492878,94.161723 100.642441,94.2837602 C99.7063274,94.1019793 98.9963839,93.8349266 98.5037274,93.505577 C98.0110709,93.8349266 97.3011274,94.1019793 96.365014,94.2837602 C96.5145772,94.161723 96.7273287,94.0835118 96.7273287,94.0835118 C96.7273287,94.0835118 96.3865142,94.2165341 96.2127768,94.2666011 C96.1006116,94.2989244 96.0107051,94.3338998 95.9610675,94.3546305 C95.243563,94.4677999 94.4088063,94.5353541 93.4535087,94.5487869 C93.6172121,94.4532251 93.8292486,94.4075721 93.8292486,94.4075721 C93.8292486,94.4075721 93.4733296,94.4916309 93.2943497,94.5169104 C93.2210514,94.5272632 93.1564749,94.5399256 93.1057698,94.5512695 C92.2677903,94.5512713 91.5453693,94.4603269 90.9168022,94.3019981 C91.1063847,94.2548956 91.3399677,94.2791871 91.3399677,94.2791871 C91.3399677,94.2791871 90.975622,94.248598 90.797629,94.2170564 C90.6552432,94.1918246 90.5417967,94.1853083 90.5021053,94.1837109 C89.5544919,93.8802931 88.8449554,93.4149407 88.3240455,92.8870484 C88.5037265,92.9288538 88.6805269,93.0310582 88.6805269,93.0310582 C88.6805269,93.0310582 88.2905368,92.8070531 88.2102212,92.7526093 C88.1906117,92.7393165 88.1745059,92.7259929 88.1613618,92.7134459 C88.1495466,92.7001645 88.137842,92.6868517 88.1262475,92.6735091 C88.1130621,92.655189 88.1083651,92.6432045 88.1083651,92.6432045 C87.7516667,92.236471 87.5023293,91.7961397 87.3357363,91.3716544 C87.4848198,91.4884165 87.6058906,91.6681827 87.6058906,91.6681827 C87.6058906,91.6681827 87.3530796,91.2950348 87.3046406,91.2107172 C87.2888524,91.183235 87.2690373,91.155852 87.2494975,91.1314233 C87.1823298,90.925369 87.1343737,90.7252021 87.1030233,90.5361608 C86.8770562,89.1735928 87.5137864,88.196359 88.606596,88.0948359 C88.4868691,88.1764125 88.3534277,88.2111018 88.3534277,88.2111018 C88.3534277,88.2111018 88.6163249,88.1480094 88.8050186,88.0861132 C88.9419921,88.0865537 89.0851457,88.0999345 89.2337835,88.1270944 C90.6986811,88.3947685 88.6709901,88.9778007 88.5679209,89.5993017 C88.5330933,89.8093102 88.5507456,90.0025486 88.612201,90.1781146 C88.6136158,90.1857275 88.6153211,90.193647 88.6173593,90.2018626 C88.6407962,90.296332 88.8460792,90.7088676 88.8460792,90.7088676 C88.8460792,90.7088676 88.7999172,90.6115921 88.7788865,90.4894063 C88.9937351,90.7792441 89.3463212,91.0035159 89.7775197,91.156074 C89.9671595,91.2895243 90.282304,91.3887533 90.282304,91.3887533 C90.282304,91.3887533 90.1632909,91.33674 90.0597925,91.2428432 C90.4401092,91.3434138 90.8653238,91.394442 91.3023858,91.3924913 L91.8858795,91.4958903 C91.8858795,91.4958903 91.6991995,91.4529633 91.5465959,91.385916 C91.8510334,91.3708974 92.1582037,91.3302483 92.4571832,91.2628329 C92.6634889,91.306581 92.9028171,91.297915 92.9028171,91.297915 C92.9028171,91.297915 92.7623356,91.2760895 92.6139523,91.224814 C92.7783106,91.1821046 92.9395468,91.1310679 93.0957864,91.0715089 C93.1874248,91.036576 93.2782384,91.0031289 93.3682147,90.9711349 C93.534688,90.9711311 93.9160584,91.0045904 93.9160584,91.0045904 C93.9160584,91.0045904 93.6991643,90.9889957 93.5236918,90.9170056 C93.9039808,90.7874474 94.2688529,90.6840771 94.6173368,90.6043634 C94.7659991,90.6104997 95.114611,90.6365386 95.114611,90.6365386 C95.114611,90.6365386 94.9396909,90.6239618 94.7769357,90.5692584 C96.4481684,90.2164526 97.7277532,90.4146701 98.5037274,90.8722043 Z" id="Oval-57-copy" fill="#515151" sketch:type="MSShapeGroup"></path>
            <path d="M0.123304562,66.4611591 C0.123304562,66.4611591 10.9076372,64.5653514 23.3955957,63.8544236 C35.8835536,63.1434956 44.6675593,63.8544236 44.6675593,63.8544236" id="Whisker" stroke="#515151" stroke-width="0.739827374" stroke-linecap="square" sketch:type="MSShapeGroup"></path>
            <path d="M2.58939581,72.8729963 C2.58939581,72.8729963 13.3737284,70.9771887 25.861687,70.2662608 C38.3496449,69.5553329 47.1336506,70.2662608 47.1336506,70.2662608" id="Whisker-copy" stroke="#515151" stroke-width="0.739827374" stroke-linecap="square" sketch:type="MSShapeGroup" transform="translate(24.784217, 71.516646) rotate(-5.000000) translate(-24.784217, -71.516646) "></path>
            <path d="M153.020962,66.4611591 C153.020962,66.4611591 163.805294,64.5653514 176.293253,63.8544236 C188.781211,63.1434956 197.565217,63.8544236 197.565217,63.8544236" id="Whisker-copy" stroke="#515151" stroke-width="0.739827374" stroke-linecap="square" sketch:type="MSShapeGroup" transform="translate(175.215783, 65.104809) scale(-1, 1) translate(-175.215783, -65.104809) "></path>
            <path d="M155.487053,72.8729963 C155.487053,72.8729963 166.271386,70.9771887 178.759344,70.2662608 C191.247302,69.5553329 200.031308,70.2662608 200.031308,70.2662608" id="Whisker-copy-2" stroke="#515151" stroke-width="0.739827374" stroke-linecap="square" sketch:type="MSShapeGroup" transform="translate(177.681874, 71.516646) scale(-1, 1) rotate(-5.000000) translate(-177.681874, -71.516646) "></path>
            <circle id="Nose" fill="#515151" sketch:type="MSShapeGroup" cx="98.6436498" cy="83.8471023" r="2.46609125"></circle>
            <ellipse id="Eye---Left" fill="#515151" sketch:type="MSShapeGroup" cx="73.9827374" cy="67.324291" rx="9.86436498" ry="14.0567201"></ellipse>
            <ellipse id="Eye---Right" fill="#515151" sketch:type="MSShapeGroup" cx="123.304562" cy="67.324291" rx="9.86436498" ry="14.0567201"></ellipse>
        </g>
    </g>
</svg>