<svg xmlns="http://www.w3.org/2000/svg" xmlns:sketch="http://www.bohemiancoding.com/sketch/ns" width="121" height="120" viewBox="0" version="1.1"><title>Icon - GitHub</title><description>Created with Sketch (http://www.bohemiancoding.com/sketch)</description>
  <g id="icon-codepen" stroke="none" stroke-width="1" fill="none" fill-rule="evenodd" sketch:type="MSPage">
    <g sketch:type="MSLayerGroup" transform="translate(61.000000, 60.000000) rotate(-180.000000) translate(-61.000000, -60.000000) translate(1.000000, 1.000000)" stroke="#393939" stroke-width="8">
      <path d="M55.64 38.33L2.33 74.7C-0.28 76.48-0.28 79.35 2.33 81.13L55.64 117.5C58.24 119.28 62.46 119.28 65.07 117.5L118.38 81.13C120.98 79.36 120.99 76.48 118.38 74.7L65.07 38.33C62.46 36.56 58.25 36.55 55.64 38.33Z" id="Rectangle-3-copy" sketch:type="MSShapeGroup"/><path d="M55.64 38.33L2.33 74.7C-0.28 76.48-0.28 79.35 2.33 81.13L55.64 117.5C58.24 119.28 62.46 119.28 65.07 117.5L118.38 81.13C120.98 79.36 120.99 76.48 118.38 74.7L65.07 38.33C62.46 36.56 58.25 36.55 55.64 38.33Z" id="Rectangle-3-copy-2" sketch:type="MSShapeGroup"/><path d="M55.64 36.33L2.33 72.7C-0.28 74.48-0.28 77.35 2.33 79.13L55.64 115.5C58.24 117.28 62.46 117.28 65.07 115.5L118.38 79.13C120.98 77.36 120.99 74.48 118.38 72.7L65.07 36.33C62.46 34.56 58.25 34.55 55.64 36.33Z" id="Rectangle-3-copy-3" sketch:type="MSShapeGroup"/><path d="M55.64 0.53L2.33 36.9C-0.28 38.67-0.28 41.55 2.33 43.33L55.64 79.7C58.24 81.47 62.46 81.48 65.07 79.7L118.38 43.33C120.98 41.55 120.99 38.68 118.38 36.9L65.07 0.53C62.46-1.25 58.25-1.25 55.64 0.53Z" id="Rectangle-3" sketch:type="MSShapeGroup"/><path d="M55.64 0.53L2.33 36.9C-0.28 38.67-0.28 41.55 2.33 43.33L55.64 79.7C58.24 81.47 62.46 81.48 65.07 79.7L118.38 43.33C120.98 41.55 120.99 38.68 118.38 36.9L65.07 0.53C62.46-1.25 58.25-1.25 55.64 0.53Z" id="Rectangle-3-copy" sketch:type="MSShapeGroup"/><path d="M55.64 0.53L2.33 36.9C-0.28 38.67-0.28 41.55 2.33 43.33L55.64 79.7C58.24 81.47 62.46 81.48 65.07 79.7L118.38 43.33C120.98 41.55 120.99 38.68 118.38 36.9L65.07 0.53C62.46-1.25 58.25-1.25 55.64 0.53Z" id="Rectangle-3-copy-2" sketch:type="MSShapeGroup"/><path d="M55.64 0.53L2.33 36.9C-0.28 38.67-0.28 41.55 2.33 43.33L55.64 79.7C58.24 81.47 62.46 81.48 65.07 79.7L118.38 43.33C120.98 41.55 120.99 38.68 118.38 36.9L65.07 0.53C62.46-1.25 58.25-1.25 55.64 0.53Z" id="Rectangle-3-copy-3" sketch:type="MSShapeGroup"/><path d="M61 8L60.63 40.34" id="Line" stroke-linecap="square" sketch:type="MSShapeGroup"/><path d="M60.47 77.74L60.25 107.21" id="Line-copy" stroke-linecap="square" sketch:type="MSShapeGroup"/><path d="M4.34 43.96L4.34 75.03" id="Line-copy" stroke-linecap="square" sketch:type="MSShapeGroup"/><path d="M116.34 43.72L116.46 74.06" id="Line-copy-2" stroke-linecap="square" sketch:type="MSShapeGroup"/>
    </g>
  </g>
</svg>
