<svg xmlns="http://www.w3.org/2000/svg" xmlns:xlink="http://www.w3.org/1999/xlink" version="1.1" width="60" height="60" viewBox="0"><path d="M46.88 24.38c-4.14 0-7.5 3.36-7.5 7.5s3.36 7.5 7.5 7.5c4.14 0 7.5-3.36 7.5-7.5 0-4.14-3.36-7.5-7.5-7.5zM46.88 18.75v0c7.25 0 13.13 5.88 13.13 13.13 0 7.25-5.88 13.13-13.12 13.13-7.25 0-13.12-5.88-13.12-13.12 0-7.25 5.88-13.12 13.13-13.12zM0 31.88c0-7.25 5.88-13.12 13.13-13.12s13.13 5.88 13.13 13.13c0 7.25-5.88 13.13-13.12 13.13-7.25 0-13.12-5.88-13.12-13.12z" fill="#000000"/></svg>