<?xml version="1.0" encoding="UTF-8" standalone="no"?>
<svg width="121px" height="120px" viewBox="0 0 121 120" version="1.1" xmlns="http://www.w3.org/2000/svg" xmlns:xlink="http://www.w3.org/1999/xlink" xmlns:sketch="http://www.bohemiancoding.com/sketch/ns">
    <title>Icon - GitHub</title>
    <description>Created with Sketch (http://www.bohemiancoding.com/sketch)</description>
    <defs></defs>
    <g id="Page-1" stroke="none" stroke-width="1" fill="none" fill-rule="evenodd" sketch:type="MSPage">
        <g id="Icon---CodePen" sketch:type="MSLayerGroup" transform="translate(61.000000, 60.000000) rotate(-180.000000) translate(-61.000000, -60.000000) translate(1.000000, 1.000000)" stroke="#393939" stroke-width="8">
            <path d="M55.6360574,38.33272 L2.32723565,74.6994698 C-0.277182519,76.4761781 -0.283059759,79.3527819 2.32723565,81.1334996 L55.6360574,117.500249 C58.2404756,119.276958 62.4571945,119.280967 65.0674899,117.500249 L118.376312,81.1334996 C120.98073,79.3567913 120.986607,76.4801875 118.376312,74.6994698 L65.0674899,38.33272 C62.4630718,36.5560118 58.2463528,36.5520024 55.6360574,38.33272 Z" id="Rectangle-3-copy" sketch:type="MSShapeGroup"></path>
            <path d="M55.6360574,38.33272 L2.32723565,74.6994698 C-0.277182519,76.4761781 -0.283059759,79.3527819 2.32723565,81.1334996 L55.6360574,117.500249 C58.2404756,119.276958 62.4571945,119.280967 65.0674899,117.500249 L118.376312,81.1334996 C120.98073,79.3567913 120.986607,76.4801875 118.376312,74.6994698 L65.0674899,38.33272 C62.4630718,36.5560118 58.2463528,36.5520024 55.6360574,38.33272 Z" id="Rectangle-3-copy-2" sketch:type="MSShapeGroup"></path>
            <path d="M55.6360574,36.33272 L2.32723565,72.6994698 C-0.277182519,74.4761781 -0.283059759,77.3527819 2.32723565,79.1334996 L55.6360574,115.500249 C58.2404756,117.276958 62.4571945,117.280967 65.0674899,115.500249 L118.376312,79.1334996 C120.98073,77.3567913 120.986607,74.4801875 118.376312,72.6994698 L65.0674899,36.33272 C62.4630718,34.5560118 58.2463528,34.5520024 55.6360574,36.33272 Z" id="Rectangle-3-copy-3" sketch:type="MSShapeGroup"></path>
            <path d="M55.6360574,0.529903152 L2.32723565,36.896654 C-0.277182519,38.6733623 -0.283059759,41.5499662 2.32723565,43.3306839 L55.6360574,79.6974348 C58.2404756,81.4741431 62.4571945,81.4781525 65.0674899,79.6974348 L118.376312,43.3306839 C120.98073,41.5539756 120.986607,38.6773717 118.376312,36.896654 L65.0674899,0.529903152 C62.4630718,-1.24680515 58.2463528,-1.25081455 55.6360574,0.529903152 Z" id="Rectangle-3" sketch:type="MSShapeGroup"></path>
            <path d="M55.6360574,0.529903152 L2.32723565,36.896654 C-0.277182519,38.6733623 -0.283059759,41.5499662 2.32723565,43.3306839 L55.6360574,79.6974348 C58.2404756,81.4741431 62.4571945,81.4781525 65.0674899,79.6974348 L118.376312,43.3306839 C120.98073,41.5539756 120.986607,38.6773717 118.376312,36.896654 L65.0674899,0.529903152 C62.4630718,-1.24680515 58.2463528,-1.25081455 55.6360574,0.529903152 Z" id="Rectangle-3-copy" sketch:type="MSShapeGroup"></path>
            <path d="M55.6360574,0.529903152 L2.32723565,36.896654 C-0.277182519,38.6733623 -0.283059759,41.5499662 2.32723565,43.3306839 L55.6360574,79.6974348 C58.2404756,81.4741431 62.4571945,81.4781525 65.0674899,79.6974348 L118.376312,43.3306839 C120.98073,41.5539756 120.986607,38.6773717 118.376312,36.896654 L65.0674899,0.529903152 C62.4630718,-1.24680515 58.2463528,-1.25081455 55.6360574,0.529903152 Z" id="Rectangle-3-copy-2" sketch:type="MSShapeGroup"></path>
            <path d="M55.6360574,0.529903152 L2.32723565,36.896654 C-0.277182519,38.6733623 -0.283059759,41.5499662 2.32723565,43.3306839 L55.6360574,79.6974348 C58.2404756,81.4741431 62.4571945,81.4781525 65.0674899,79.6974348 L118.376312,43.3306839 C120.98073,41.5539756 120.986607,38.6773717 118.376312,36.896654 L65.0674899,0.529903152 C62.4630718,-1.24680515 58.2463528,-1.25081455 55.6360574,0.529903152 Z" id="Rectangle-3-copy-3" sketch:type="MSShapeGroup"></path>
            <path d="M61,8.0028169 L60.634493,40.3412571" id="Line" stroke-linecap="square" sketch:type="MSShapeGroup"></path>
            <path d="M60.4666673,77.7446439 L60.2500006,107.211268" id="Line-copy" stroke-linecap="square" sketch:type="MSShapeGroup"></path>
            <path d="M4.34331355,43.9599337 L4.3421028,75.0330657" id="Line-copy" stroke-linecap="square" sketch:type="MSShapeGroup"></path>
            <path d="M116.339228,43.7238258 L116.463991,74.0648751" id="Line-copy-2" stroke-linecap="square" sketch:type="MSShapeGroup"></path>
        </g>
    </g>
</svg>